<svg width="119" height="118" viewBox="0 0 119 118" fill="none" xmlns="http://www.w3.org/2000/svg">
<circle cx="59.5" cy="58.75" r="58.75" fill="#F89B2D" fill-opacity="0.13"/>
<g clip-path="url(#clip0_245_3092)">
<path d="M69.7454 68.9949C69.7454 69.6689 69.4777 70.3154 69.001 70.7921C68.5244 71.2687 67.8779 71.5365 67.2038 71.5365H62.1204V76.6199C62.1204 77.2939 61.8527 77.9404 61.376 78.4171C60.8994 78.8937 60.2529 79.1615 59.5788 79.1615C58.9047 79.1615 58.2582 78.8937 57.7815 78.4171C57.3049 77.9404 57.0371 77.2939 57.0371 76.6199V71.5365H51.9538C51.2797 71.5365 50.6332 71.2687 50.1565 70.7921C49.6799 70.3154 49.4121 69.6689 49.4121 68.9949C49.4121 68.3208 49.6799 67.6743 50.1565 67.1976C50.6332 66.721 51.2797 66.4532 51.9538 66.4532H57.0371V61.3699C57.0371 60.6958 57.3049 60.0493 57.7815 59.5726C58.2582 59.096 58.9047 58.8282 59.5788 58.8282C60.2529 58.8282 60.8994 59.096 61.376 59.5726C61.8527 60.0493 62.1204 60.6958 62.1204 61.3699V66.4532H67.2038C67.8779 66.4532 68.5244 66.721 69.001 67.1976C69.4777 67.6743 69.7454 68.3208 69.7454 68.9949ZM84.9954 54.9776V76.6199C84.9914 79.9891 83.6512 83.2191 81.2688 85.6015C78.8864 87.9839 75.6563 89.3242 72.2871 89.3282H46.8704C43.5012 89.3242 40.2712 87.9839 37.8888 85.6015C35.5064 83.2191 34.1661 79.9891 34.1621 76.6199V41.0365C34.1661 37.6673 35.5064 34.4372 37.8888 32.0548C40.2712 29.6724 43.5012 28.3322 46.8704 28.3282H58.3461C60.6834 28.3222 62.9988 28.7796 65.1583 29.6739C67.3178 30.5682 69.2786 31.8818 70.9273 33.5386L79.7825 42.3988C81.4403 44.0465 82.7546 46.0066 83.6494 48.1658C84.5443 50.325 85.0018 52.6403 84.9954 54.9776ZM67.3334 37.1325C66.5335 36.3577 65.6354 35.6912 64.6621 35.15V46.1199C64.6621 46.7939 64.9299 47.4404 65.4065 47.9171C65.8832 48.3937 66.5297 48.6615 67.2038 48.6615H78.1736C77.6321 47.6885 76.9647 46.7912 76.1886 45.9928L67.3334 37.1325ZM79.9121 54.9776C79.9121 54.5582 79.8308 54.1566 79.7926 53.7449H67.2038C65.1815 53.7449 63.2421 52.9415 61.8121 51.5115C60.3821 50.0816 59.5788 48.1421 59.5788 46.1199V33.531C59.167 33.4929 58.7629 33.4115 58.3461 33.4115H46.8704C44.8482 33.4115 42.9087 34.2149 41.4788 35.6448C40.0488 37.0748 39.2454 39.0142 39.2454 41.0365V76.6199C39.2454 78.6421 40.0488 80.5816 41.4788 82.0115C42.9087 83.4415 44.8482 84.2449 46.8704 84.2449H72.2871C74.3094 84.2449 76.2488 83.4415 77.6788 82.0115C79.1088 80.5816 79.9121 78.6421 79.9121 76.6199V54.9776Z" fill="#F89B2D"/>
</g>
<defs>
<clipPath id="clip0_245_3092">
<rect width="61" height="61" fill="white" transform="translate(29.0781 28.3281)"/>
</clipPath>
</defs>
</svg>
