<svg width="16" height="17" viewBox="0 0 16 17" fill="none" xmlns="http://www.w3.org/2000/svg">
<path d="M10.6667 8.60229H5.33337C5.06004 8.60229 4.83337 8.37563 4.83337 8.10229C4.83337 7.82896 5.06004 7.60229 5.33337 7.60229H10.6667C10.94 7.60229 11.1667 7.82896 11.1667 8.10229C11.1667 8.37563 10.94 8.60229 10.6667 8.60229Z" fill="#686868"/>
<path d="M8 11.2689C7.72667 11.2689 7.5 11.0422 7.5 10.7689V5.43555C7.5 5.16221 7.72667 4.93555 8 4.93555C8.27333 4.93555 8.5 5.16221 8.5 5.43555V10.7689C8.5 11.0422 8.27333 11.2689 8 11.2689Z" fill="#686868"/>
<path d="M10 15.2689H6.00004C2.38004 15.2689 0.833374 13.7222 0.833374 10.1022V6.10221C0.833374 2.48221 2.38004 0.935547 6.00004 0.935547H10C13.62 0.935547 15.1667 2.48221 15.1667 6.10221V10.1022C15.1667 13.7222 13.62 15.2689 10 15.2689ZM6.00004 1.93555C2.92671 1.93555 1.83337 3.02888 1.83337 6.10221V10.1022C1.83337 13.1755 2.92671 14.2689 6.00004 14.2689H10C13.0734 14.2689 14.1667 13.1755 14.1667 10.1022V6.10221C14.1667 3.02888 13.0734 1.93555 10 1.93555H6.00004Z" fill="#686868"/>
</svg>
