<svg width="16" height="17" viewBox="0 0 16 17" fill="none" xmlns="http://www.w3.org/2000/svg">
<path d="M11.7332 15.1423H4.26656C3.05323 15.1423 1.94656 14.2089 1.74656 13.0089L0.859896 7.70228C0.719896 6.87562 1.1199 5.81562 1.7799 5.28895L6.39991 1.58892C7.29324 0.868921 8.6999 0.875594 9.5999 1.59559L14.2199 5.28895C14.8732 5.81562 15.2732 6.87562 15.1399 7.70228L14.2532 13.0089C14.0532 14.1889 12.9266 15.1423 11.7332 15.1423ZM7.99324 2.06227C7.6399 2.06227 7.28656 2.16892 7.02656 2.37558L2.40657 6.07562C2.02657 6.38228 1.76657 7.06225 1.84657 7.54225L2.73324 12.8489C2.85324 13.5489 3.55323 14.1423 4.26656 14.1423H11.7332C12.4466 14.1423 13.1466 13.5489 13.2666 12.8423L14.1532 7.53562C14.2332 7.05562 13.9666 6.36894 13.5932 6.06894L8.97324 2.37558C8.70657 2.16892 8.35324 2.06227 7.99324 2.06227Z" fill="#F89C2A"/>
<path d="M7.99998 10.9359C6.80665 10.9359 5.83331 9.96254 5.83331 8.76921C5.83331 7.57587 6.80665 6.60254 7.99998 6.60254C9.19331 6.60254 10.1666 7.57587 10.1666 8.76921C10.1666 9.96254 9.19331 10.9359 7.99998 10.9359ZM7.99998 7.60254C7.35998 7.60254 6.83331 8.12921 6.83331 8.76921C6.83331 9.40921 7.35998 9.93587 7.99998 9.93587C8.63998 9.93587 9.16665 9.40921 9.16665 8.76921C9.16665 8.12921 8.63998 7.60254 7.99998 7.60254Z" fill="#F89C2A"/>
</svg>
