<svg width="16" height="17" viewBox="0 0 16 17" fill="none" xmlns="http://www.w3.org/2000/svg">
<g clip-path="url(#clip0_765_784)">
<path d="M13 9.60229V7.85229C13 6.60965 11.9926 5.60229 10.75 5.60229H9.75C9.33579 5.60229 9 5.26651 9 4.85229V3.85229C9 2.60965 7.99264 1.60229 6.75 1.60229H5.5M5.5 10.1023H10.5M5.5 12.1023H8M7 1.60229H3.75C3.33579 1.60229 3 1.93808 3 2.35229V13.8523C3 14.2665 3.33579 14.6023 3.75 14.6023H12.25C12.6642 14.6023 13 14.2665 13 13.8523V7.60229C13 4.28859 10.3137 1.60229 7 1.60229Z" stroke="#F89C2A" stroke-width="1.5" stroke-linecap="round" stroke-linejoin="round"/>
</g>
<defs>
<clipPath id="clip0_765_784">
<rect width="16" height="16" fill="white" transform="translate(0 0.102295)"/>
</clipPath>
</defs>
</svg>
