<svg width="16" height="17" viewBox="0 0 16 17" fill="none" xmlns="http://www.w3.org/2000/svg">
<path d="M6.1064 7.84937C6.0864 7.84937 6.07307 7.84937 6.05307 7.84937C6.01973 7.8427 5.97307 7.8427 5.93307 7.84937C3.99973 7.78937 2.53973 6.26937 2.53973 4.39604C2.53973 2.48937 4.09307 0.936035 5.99973 0.936035C7.9064 0.936035 9.45973 2.48937 9.45973 4.39604C9.45307 6.26937 7.9864 7.78937 6.1264 7.84937C6.11973 7.84937 6.11307 7.84937 6.1064 7.84937ZM5.99973 1.93604C4.6464 1.93604 3.53973 3.0427 3.53973 4.39604C3.53973 5.72937 4.57973 6.8027 5.9064 6.84937C5.9464 6.8427 6.03307 6.8427 6.11973 6.84937C7.4264 6.78937 8.45307 5.71604 8.45973 4.39604C8.45973 3.0427 7.35307 1.93604 5.99973 1.93604Z" fill="#F89C2A"/>
<path d="M11.0264 7.93571C11.0064 7.93571 10.9864 7.93571 10.9664 7.92904C10.6931 7.95571 10.4131 7.76238 10.3864 7.48904C10.3597 7.21571 10.5264 6.96904 10.7997 6.93571C10.8797 6.92904 10.9664 6.92904 11.0397 6.92904C12.0131 6.87571 12.7731 6.07571 12.7731 5.09571C12.7731 4.08238 11.9531 3.26238 10.9397 3.26238C10.6664 3.26904 10.4397 3.04238 10.4397 2.76904C10.4397 2.49571 10.6664 2.26904 10.9397 2.26904C12.4997 2.26904 13.7731 3.54238 13.7731 5.10238C13.7731 6.63571 12.5731 7.87571 11.0464 7.93571C11.0397 7.93571 11.0331 7.93571 11.0264 7.93571Z" fill="#F89C2A"/>
<path d="M6.11307 15.1357C4.80641 15.1357 3.49307 14.8024 2.49974 14.1357C1.57307 13.5224 1.06641 12.6824 1.06641 11.769C1.06641 10.8557 1.57307 10.009 2.49974 9.38904C4.49974 8.06238 7.73974 8.06238 9.72641 9.38904C10.6464 10.0024 11.1597 10.8424 11.1597 11.7557C11.1597 12.669 10.6531 13.5157 9.72641 14.1357C8.72641 14.8024 7.41974 15.1357 6.11307 15.1357ZM3.05307 10.229C2.41307 10.6557 2.06641 11.2024 2.06641 11.7757C2.06641 12.3424 2.41974 12.889 3.05307 13.309C4.71307 14.4224 7.51307 14.4224 9.17307 13.309C9.81307 12.8824 10.1597 12.3357 10.1597 11.7624C10.1597 11.1957 9.80641 10.649 9.17307 10.229C7.51307 9.12238 4.71307 9.12238 3.05307 10.229Z" fill="#F89C2A"/>
<path d="M12.2264 13.9359C11.9931 13.9359 11.7864 13.7759 11.7397 13.5359C11.6864 13.2626 11.8597 13.0026 12.1264 12.9426C12.5464 12.8559 12.9331 12.6892 13.2331 12.4559C13.6131 12.1692 13.8197 11.8092 13.8197 11.4292C13.8197 11.0492 13.6131 10.6892 13.2397 10.4092C12.9464 10.1826 12.5797 10.0226 12.1464 9.92255C11.8797 9.86255 11.7064 9.59588 11.7664 9.32255C11.8264 9.05588 12.0931 8.88255 12.3664 8.94255C12.9397 9.06922 13.4397 9.29589 13.8464 9.60922C14.4664 10.0759 14.8197 10.7359 14.8197 11.4292C14.8197 12.1226 14.4597 12.7826 13.8397 13.2559C13.4264 13.5759 12.9064 13.8092 12.3331 13.9226C12.2931 13.9359 12.2597 13.9359 12.2264 13.9359Z" fill="#F89C2A"/>
</svg>
