<svg width="8" height="13" viewBox="0 0 8 13" fill="none" xmlns="http://www.w3.org/2000/svg">
<path d="M3.99999 2.90001C4.23333 2.90001 4.46666 2.99001 4.64333 3.16667L6.81666 5.34001C6.91333 5.43667 6.91333 5.59667 6.81666 5.69334C6.71999 5.79001 6.55999 5.79001 6.46333 5.69334L4.28999 3.52C4.12999 3.36001 3.86999 3.36001 3.70999 3.52L1.53666 5.69334C1.43999 5.79 1.27999 5.79 1.18333 5.69334C1.08666 5.59667 1.08666 5.43667 1.18333 5.34L3.35666 3.16667C3.53333 2.99 3.76666 2.90001 3.99999 2.90001Z" fill="#686868"/>
<path d="M4.00001 10.1C3.76667 10.1 3.53334 10.01 3.35667 9.83333L1.18334 7.65999C1.08667 7.56333 1.08667 7.40333 1.18334 7.30666C1.28001 7.20999 1.44001 7.20999 1.53667 7.30666L3.71001 9.47999C3.87001 9.63999 4.13001 9.63999 4.29001 9.47999L6.46334 7.30666C6.56001 7.20999 6.72001 7.20999 6.81667 7.30666C6.91334 7.40333 6.91334 7.56333 6.81667 7.65999L4.64334 9.83333C4.46667 10.01 4.23334 10.1 4.00001 10.1Z" fill="#686868"/>
</svg>
