<svg width="24" height="24" viewBox="0 0 24 24" fill="none" xmlns="http://www.w3.org/2000/svg">
<circle cx="12" cy="12" r="11.9" fill="#FFFAF5" stroke="#F89C2A" stroke-width="0.2"/>
<path d="M17.4141 15.9312C17.1194 15.2331 16.6916 14.5989 16.1547 14.0641C15.6195 13.5277 14.9854 13.1 14.2875 12.8047C14.2813 12.8016 14.275 12.8 14.2688 12.7969C15.2422 12.0938 15.875 10.9484 15.875 9.65625C15.875 7.51562 14.1407 5.78125 12 5.78125C9.85941 5.78125 8.12504 7.51562 8.12504 9.65625C8.12504 10.9484 8.75785 12.0937 9.73129 12.7984C9.72504 12.8016 9.71879 12.8031 9.71254 12.8062C9.01254 13.1016 8.38441 13.525 7.84535 14.0656C7.30896 14.6009 6.8813 15.235 6.58598 15.9328C6.29585 16.616 6.13939 17.3485 6.12504 18.0906C6.12462 18.1073 6.12755 18.1239 6.13364 18.1394C6.13974 18.1549 6.14888 18.1691 6.16053 18.181C6.17218 18.193 6.1861 18.2025 6.20147 18.2089C6.21684 18.2154 6.23336 18.2188 6.25004 18.2188H7.18754C7.25629 18.2188 7.31098 18.1641 7.31254 18.0969C7.34379 16.8906 7.82816 15.7609 8.68441 14.9047C9.57035 14.0188 10.7469 13.5312 12 13.5312C13.2532 13.5312 14.4297 14.0188 15.3157 14.9047C16.1719 15.7609 16.6563 16.8906 16.6875 18.0969C16.6891 18.1656 16.7438 18.2188 16.8125 18.2188H17.75C17.7667 18.2188 17.7832 18.2154 17.7986 18.2089C17.814 18.2025 17.8279 18.193 17.8396 18.181C17.8512 18.1691 17.8603 18.1549 17.8664 18.1394C17.8725 18.1239 17.8755 18.1073 17.875 18.0906C17.8594 17.3438 17.7047 16.6172 17.4141 15.9312ZM12 12.3438C11.2829 12.3438 10.6079 12.0641 10.1 11.5563C9.59223 11.0484 9.31254 10.3734 9.31254 9.65625C9.31254 8.93906 9.59223 8.26406 10.1 7.75625C10.6079 7.24844 11.2829 6.96875 12 6.96875C12.7172 6.96875 13.3922 7.24844 13.9 7.75625C14.4079 8.26406 14.6875 8.93906 14.6875 9.65625C14.6875 10.3734 14.4079 11.0484 13.9 11.5563C13.3922 12.0641 12.7172 12.3438 12 12.3438Z" fill="#F89C2A"/>
</svg>
