<svg width="52" height="52" viewBox="0 0 52 52" fill="none" xmlns="http://www.w3.org/2000/svg">
<rect x="0.25" y="0.25" width="51.5" height="51.5" rx="3.75" fill="#FFFAF5"/>
<rect x="0.25" y="0.25" width="51.5" height="51.5" rx="3.75" stroke="#F89C2A" stroke-width="0.5"/>
<g clip-path="url(#clip0_902_31242)">
<path d="M27.7341 38.8201C54.3501 20.1761 37.3141 5.69414 27.8621 11.1721L24.0001 16.0001L27.0001 24.0001L23.0001 30.0001L26.0001 40.0001C26.5835 39.6148 27.1615 39.2214 27.7341 38.8201ZM27.1281 36.8001L25.1861 30.3261L28.6661 25.1101C28.8416 24.8461 28.9518 24.544 28.9876 24.229C29.0234 23.9139 28.9838 23.5949 28.8721 23.2981L26.2721 16.3621L29.1721 12.7361C32.8941 10.8401 38.0641 12.7401 39.5661 16.9561C40.9481 20.8361 39.4561 27.9981 27.1281 36.8001ZM24.6281 39.0741C23.5941 38.3569 22.5791 37.6126 21.5841 36.8421C-0.153937 19.9401 13.6841 7.05614 22.9081 10.5861C23.5361 10.8261 24.1441 11.1441 24.7161 11.5401L21.0001 16.0001L24.0001 24.0001L21.0001 30.0001L24.6281 39.0741ZM20.0281 32.9541L19.1441 30.7421C19.0393 30.4801 18.9912 30.1988 19.003 29.9169C19.0147 29.6349 19.0859 29.3586 19.2121 29.1061L21.8221 23.8861L19.1281 16.7001C19.0041 16.3695 18.9699 16.012 19.0289 15.6639C19.088 15.3157 19.2381 14.9894 19.4641 14.7181L21.5281 12.2381C18.1521 11.3401 14.1281 13.0341 12.6161 16.4941C11.1941 19.7481 11.7901 25.5941 20.0281 32.9521V32.9541Z" fill="#F89C2A"/>
</g>
<defs>
<clipPath id="clip0_902_31242">
<rect width="32" height="32" fill="white" transform="translate(10 10)"/>
</clipPath>
</defs>
</svg>
