<svg width="202" height="76" viewBox="0 0 202 76" fill="none" xmlns="http://www.w3.org/2000/svg">
<path d="M29.7466 53.7537C28.6371 52.5213 11.0419 35.0664 6.05593 30.1246V23.1082L0.0273438 17.2627V32.6456L6.05593 38.5646V38.5539C9.72121 42.2058 19.8816 52.3248 20.5874 52.9998C21.4496 53.8259 27.9861 58.7463 27.7174 63.2725C27.4474 67.7986 23.353 69.4147 21.773 69.4147C20.193 69.4147 6.05593 69.4147 6.05593 69.4147V47.1316L0.0273438 40.9988V75.4125H6.05593C6.05593 75.4125 17.9113 75.5021 20.0661 75.4125C22.2208 75.323 30.8948 74.7295 33.0496 66.9725C35.207 59.2142 31.0405 55.1907 29.7466 53.7537Z" fill="black"/>
<path d="M54.7181 54.9457C54.2703 54.3589 53.8399 53.8857 53.487 53.5408C52.9938 53.0556 49.6867 49.7726 45.1178 45.2305L41.8415 41.9542C41.8375 41.9569 41.8349 41.9609 41.8308 41.9635C40.7855 40.9249 39.7041 39.8489 38.5947 38.7461L38.2578 38.4092C38.0827 38.2341 37.9089 38.0603 37.7338 37.8852C26.7687 26.8693 16.4012 16.451 15.8999 15.9497C14.8212 14.8736 14.3894 11.7497 15.2529 9.84492C16.1124 7.94143 17.8729 5.96443 19.9194 5.96443C21.9686 5.96443 28.0038 5.85615 28.0038 5.85615C28.0038 5.85615 29.0799 1.8968 31.5221 0C31.5221 0 23.7264 0 20.6051 0C17.4799 0 11.4807 2.31921 9.32592 8.46142C9.00243 9.38108 8.81529 10.282 8.7391 11.1549C8.3969 14.9913 10.1547 18.2876 11.6866 20.2887C12.1344 20.8755 12.5648 21.3514 12.9177 21.6976C13.6315 22.3994 20.2937 29.0174 28.1469 36.8252L28.3661 37.0444C39.4421 48.1712 50.0035 58.7808 50.5075 59.2847C51.5835 60.3608 52.014 63.4847 51.1544 65.3895C50.2909 67.293 48.5305 69.27 46.484 69.27C44.4374 69.27 38.4035 69.3783 38.4035 69.3783C38.4035 69.3783 37.3248 73.3376 34.8813 75.2344C34.8813 75.2344 42.677 75.2344 45.8009 75.2344C48.9261 75.2344 54.9226 72.9152 57.0761 66.773C57.3996 65.8533 57.5867 64.9524 57.6629 64.0795C58.0078 60.2431 56.254 56.9468 54.7181 54.9457Z" fill="#F89B2D"/>
<path d="M25.6774 17.3288C30.0458 17.3582 34.6855 17.3903 36.7855 17.4076C41.3116 17.4437 47.0034 23.2985 47.6503 27.016C48.2879 30.6852 47.8909 35.0683 45.9808 37.6335L50.2516 41.9043C53.1416 37.9343 54.894 32.4096 53.4143 26.4238C51.0443 16.8342 42.2447 11.5181 36.8563 11.5181C33.4678 11.5181 25.3913 11.5181 19.864 11.5181L25.6774 17.3288Z" fill="black"/>
<path d="M76.8988 18.4539C77.2838 18.9899 77.4763 19.6302 77.4763 20.3761C77.4763 21.1447 77.2811 21.7636 76.8934 22.2301C76.6756 22.4921 76.3561 22.7314 75.9324 22.9479C76.5753 23.1819 77.0605 23.5521 77.3867 24.0587C77.7142 24.5654 77.8773 25.1816 77.8773 25.9047C77.8773 26.6506 77.6901 27.3203 77.3172 27.9125C77.0793 28.3055 76.7825 28.6357 76.4256 28.9043C76.0232 29.2118 75.5487 29.423 75.002 29.5366C74.4553 29.6502 73.8618 29.7077 73.2228 29.7077H67.5485V17.1118H73.6359C75.1704 17.1359 76.2585 17.5823 76.8988 18.4539ZM70.0602 19.3V22.0777H73.1212C73.6679 22.0777 74.1117 21.9735 74.4526 21.7663C74.7935 21.5577 74.9646 21.1901 74.9646 20.6595C74.9646 20.0726 74.7387 19.685 74.2882 19.4979C73.8992 19.3669 73.4033 19.3014 72.8004 19.3014H70.0602V19.3ZM70.0602 24.1617V27.5195H73.1186C73.6639 27.5195 74.0904 27.446 74.3938 27.2976C74.9459 27.0236 75.2212 26.4996 75.2212 25.7256C75.2212 25.0706 74.9539 24.6202 74.4192 24.3755C74.1211 24.2392 73.7014 24.167 73.16 24.1617H70.0602Z" fill="black"/>
<path d="M89.4573 19.3428H82.7924V22.0176H88.9106V24.2044H82.7924V27.4433H89.7647V29.7077H80.2206V17.1118H89.4573V19.3428Z" fill="black"/>
<path d="M93.7134 25.8203C93.7949 26.3965 93.9553 26.8255 94.1932 27.1103C94.629 27.6289 95.3762 27.8882 96.4349 27.8882C97.0685 27.8882 97.5832 27.8201 97.9788 27.6837C98.7287 27.4217 99.1043 26.9352 99.1043 26.2227C99.1043 25.807 98.9199 25.4848 98.5536 25.2576C98.186 25.0357 97.6032 24.8392 96.8052 24.6681L95.4417 24.3687C94.101 24.0719 93.1814 23.7511 92.6801 23.4036C91.8313 22.8221 91.4075 21.9145 91.4075 20.678C91.4075 19.5498 91.8232 18.6128 92.6533 17.8669C93.4834 17.121 94.7039 16.748 96.3119 16.748C97.6553 16.748 98.8009 17.0996 99.75 17.8027C100.699 18.5058 101.196 19.5271 101.242 20.8665H98.7127C98.6659 20.1086 98.3277 19.5712 97.6968 19.2517C97.2757 19.0405 96.7531 18.9349 96.1288 18.9349C95.4337 18.9349 94.879 19.0713 94.4646 19.3453C94.0502 19.6193 93.843 20.0003 93.843 20.4909C93.843 20.9413 94.0475 21.2768 94.4566 21.4987C94.7199 21.6471 95.2773 21.8209 96.1301 22.0201L98.3411 22.5414C99.3102 22.7699 100.036 23.0747 100.52 23.4557C101.271 24.0479 101.647 24.906 101.647 26.0275C101.647 27.1784 101.202 28.1342 100.313 28.8948C99.4225 29.6554 98.166 30.035 96.5432 30.035C94.8843 30.035 93.581 29.6607 92.6306 28.9108C91.6802 28.1623 91.2057 27.1317 91.2057 25.8217H93.7134V25.8203Z" fill="#F89B2D"/>
<path d="M111.943 24.2566C111.205 24.8715 110.153 25.1789 108.785 25.1789H106.162V29.7077H103.547V17.1118H108.956C110.203 17.1118 111.196 17.4366 111.938 18.0863C112.68 18.7359 113.05 19.7411 113.05 21.1032C113.05 22.5897 112.681 23.6417 111.943 24.2566ZM109.935 19.7184C109.603 19.439 109.135 19.3 108.535 19.3H106.163V23.0081H108.535C109.135 23.0081 109.603 22.857 109.935 22.5549C110.268 22.2528 110.435 21.7743 110.435 21.1193C110.435 20.4656 110.268 19.9978 109.935 19.7184Z" fill="#F89B2D"/>
<path d="M124.859 28.5886C123.907 29.5684 122.532 30.059 120.731 30.059C118.931 30.059 117.555 29.5684 116.603 28.5886C115.327 27.3869 114.689 25.6545 114.689 23.3928C114.689 21.0856 115.327 19.3545 116.603 18.197C117.555 17.2171 118.931 16.7266 120.731 16.7266C122.532 16.7266 123.907 17.2171 124.859 18.197C126.129 19.3532 126.764 21.0856 126.764 23.3928C126.765 25.6545 126.129 27.3869 124.859 28.5886ZM123.213 26.6744C123.826 25.9058 124.132 24.811 124.132 23.3928C124.132 21.9799 123.826 20.8878 123.213 20.1151C122.601 19.3439 121.774 18.9575 120.731 18.9575C119.689 18.9575 118.857 19.3425 118.236 20.1111C117.614 20.8797 117.304 21.9745 117.304 23.3928C117.304 24.811 117.614 25.9045 118.236 26.6744C118.856 27.443 119.689 27.828 120.731 27.828C121.774 27.828 122.601 27.443 123.213 26.6744Z" fill="#F89B2D"/>
<path d="M128.816 17.1118H131.405V22.301L136.271 17.1118H139.671L134.502 22.2916L139.936 29.7064H136.553L132.672 24.2084L131.405 25.4944V29.7064H128.816V17.1118Z" fill="#F89B2D"/>
<path d="M150.725 19.3428H144.06V22.0176H150.178V24.2044H144.06V27.4433H151.032V29.7077H141.488V17.1118H150.725V19.3428Z" fill="#F89B2D"/>
<path d="M69.9064 50.7072H67.2917V38.1113H69.9064V50.7072Z" fill="black"/>
<path d="M72.3242 38.1128H75.0832L80.0825 46.895V38.1128H82.5354V50.7087H79.9047L74.7771 41.7714V50.7087H72.3242V38.1128Z" fill="black"/>
<path d="M85.0062 38.1309H93.9876V40.3445H87.6222V43.2411H93.2016V45.428H87.6222V50.7094H85.0062V38.1309Z" fill="black"/>
<path d="M105.393 49.5876C104.442 50.5674 103.066 51.058 101.266 51.058C99.465 51.058 98.0895 50.5674 97.1378 49.5876C95.8612 48.3859 95.2236 46.6535 95.2236 44.3918C95.2236 42.0846 95.8612 40.3536 97.1378 39.196C98.0895 38.2162 99.465 37.7256 101.266 37.7256C103.066 37.7256 104.442 38.2162 105.393 39.196C106.663 40.3522 107.298 42.0846 107.298 44.3918C107.3 46.6535 106.663 48.3859 105.393 49.5876ZM103.748 47.6734C104.36 46.9048 104.666 45.81 104.666 44.3918C104.666 42.9789 104.36 41.8868 103.748 41.1142C103.136 40.3429 102.308 39.9566 101.266 39.9566C100.223 39.9566 99.3915 40.3415 98.7699 41.1102C98.1484 41.8788 97.8382 42.9735 97.8382 44.3918C97.8382 45.81 98.1484 46.9035 98.7699 47.6734C99.3902 48.442 100.223 48.827 101.266 48.827C102.308 48.827 103.136 48.442 103.748 47.6734Z" fill="black"/>
<path d="M118.459 38.1128V40.3424H114.691V50.7073H112.041V40.3424H108.256V38.1128H118.459Z" fill="black"/>
<path d="M129.312 40.3423H122.647V43.0171H128.765V45.2039H122.647V48.4428H129.619V50.7072H120.075V38.1113H129.312V40.3423Z" fill="black"/>
<path d="M132.873 39.4272C133.887 38.3899 135.177 37.8726 136.744 37.8726C138.84 37.8726 140.373 38.5676 141.342 39.9578C141.878 40.7385 142.164 41.5218 142.205 42.3078H139.573C139.405 41.7036 139.19 41.2478 138.928 40.9403C138.459 40.3936 137.765 40.1196 136.844 40.1196C135.907 40.1196 135.167 40.5059 134.625 41.2772C134.084 42.0498 133.814 43.1419 133.814 44.5548C133.814 45.9677 134.1 47.0264 134.671 47.7295C135.242 48.4326 135.967 48.7855 136.848 48.7855C137.751 48.7855 138.439 48.4834 138.914 47.8792C139.176 47.5544 139.392 47.0678 139.566 46.4182H142.18C141.955 47.791 141.378 48.9071 140.452 49.768C139.524 50.6288 138.337 51.0579 136.888 51.0579C135.096 51.0579 133.687 50.4765 132.662 49.3148C131.636 48.1466 131.123 46.5465 131.123 44.512C131.123 42.3131 131.706 40.6182 132.873 39.4272Z" fill="black"/>
<path d="M144.29 50.7072V38.1113H146.904V42.9141H151.801V38.1113H154.415V50.7072H151.801V45.085H146.904V50.7072H144.29Z" fill="black"/>
<path d="M161.986 45.444C162.362 44.9027 162.978 44.3666 163.832 43.8373L164.097 43.6756C163.732 43.2652 163.45 42.8455 163.251 42.4177C163.052 41.99 162.951 41.5448 162.951 41.0823C162.951 40.164 163.263 39.4462 163.886 38.9302C164.509 38.4142 165.316 38.1562 166.307 38.1562C167.212 38.1562 167.96 38.4209 168.551 38.9489C169.142 39.4769 169.437 40.1533 169.437 40.9767C169.437 41.7199 169.259 42.3228 168.905 42.7853C168.551 43.2478 168.031 43.6769 167.345 44.0712L169.155 46.2661C169.362 45.9694 169.523 45.6486 169.635 45.301C169.747 44.9535 169.806 44.5859 169.813 44.1982H171.974C171.934 44.9642 171.75 45.7381 171.42 46.5214C171.238 46.9612 170.942 47.4464 170.533 47.9784L172.819 50.7094H169.872L168.996 49.6427C168.57 50.0383 168.173 50.3297 167.804 50.5195C167.147 50.8577 166.389 51.0262 165.533 51.0262C164.243 51.0262 163.235 50.6505 162.509 49.898C161.783 49.1454 161.421 48.3113 161.421 47.3943C161.422 46.635 161.611 45.9854 161.986 45.444ZM164.367 48.461C164.712 48.8085 165.154 48.9823 165.693 48.9823C166.099 48.9823 166.483 48.8914 166.845 48.7083C167.208 48.5252 167.502 48.3206 167.728 48.0961L165.371 45.2275C164.755 45.6325 164.346 45.9894 164.148 46.2969C163.95 46.6043 163.85 46.9438 163.85 47.3154C163.85 47.7298 164.022 48.1121 164.367 48.461ZM165.439 41.7146C165.546 41.8803 165.776 42.1744 166.13 42.5968C166.484 42.3576 166.738 42.1544 166.892 41.9886C167.187 41.6798 167.335 41.347 167.335 40.9861C167.335 40.7241 167.246 40.4902 167.069 40.2843C166.891 40.0785 166.622 39.9755 166.262 39.9755C166.038 39.9755 165.828 40.0357 165.633 40.156C165.337 40.3324 165.19 40.6131 165.19 40.9954C165.192 41.2227 165.273 41.4633 165.439 41.7146Z" fill="black"/>
<path d="M68.7087 60.4281C69.7233 59.3908 71.0132 58.8735 72.5799 58.8735C74.6758 58.8735 76.2091 59.5686 77.1782 60.9588C77.7142 61.7395 78.0003 62.5228 78.0404 63.3088H75.4084C75.2413 62.7046 75.0261 62.2488 74.7641 61.9413C74.2949 61.3946 73.6011 61.1206 72.6801 61.1206C71.7431 61.1206 71.0026 61.5069 70.4612 62.2781C69.9198 63.0508 69.6498 64.1429 69.6498 65.5558C69.6498 66.9687 69.9358 68.0274 70.5066 68.7305C71.0774 69.4336 71.8032 69.7865 72.6841 69.7865C73.5864 69.7865 74.2748 69.4844 74.7494 68.8802C75.0114 68.5554 75.2279 68.0688 75.4017 67.4192H78.0163C77.7904 68.792 77.2143 69.9081 76.2879 70.769C75.3602 71.6298 74.1732 72.0589 72.7242 72.0589C70.9317 72.0589 69.5228 71.4774 68.4975 70.3158C67.4723 69.1475 66.959 67.5475 66.959 65.513C66.959 63.3141 67.5418 61.6192 68.7087 60.4281Z" fill="black"/>
<path d="M88.2157 59.4371C88.6795 59.6363 89.0725 59.9304 89.3946 60.3167C89.6606 60.6362 89.8718 60.989 90.0282 61.3767C90.1833 61.7643 90.2622 62.2055 90.2622 62.7014C90.2622 63.2989 90.1111 63.8884 89.809 64.4659C89.5069 65.0447 89.0083 65.4523 88.3132 65.6916C88.8947 65.9255 89.3051 66.2571 89.5484 66.6875C89.7903 67.1179 89.912 67.7742 89.912 68.6565V69.5026C89.912 70.0787 89.9347 70.4677 89.9815 70.6736C90.051 70.9984 90.2127 71.2377 90.468 71.3914V71.7082H87.5633C87.4831 71.4288 87.427 71.2042 87.3922 71.0331C87.3241 70.6802 87.2866 70.318 87.2813 69.9477L87.2639 68.7768C87.2532 67.9734 87.1142 67.4387 86.8482 67.17C86.5809 66.9027 86.0823 66.769 85.3484 66.769H82.7779V71.7082H80.2061V59.1123H86.2306C87.0888 59.1297 87.7518 59.2379 88.2157 59.4371ZM82.7752 61.2992V64.6824H85.6077C86.1705 64.6824 86.5929 64.6142 86.8736 64.4779C87.3709 64.2386 87.6208 63.7654 87.6208 63.0596C87.6208 62.2964 87.3802 61.7831 86.899 61.5211C86.629 61.3727 86.2226 61.2992 85.6812 61.2992H82.7752Z" fill="black"/>
<path d="M102.096 61.3433H95.4311V64.018H101.549V66.2049H95.4311V69.4438H102.403V71.7082H92.8593V59.1123H102.096V61.3433Z" fill="black"/>
<path d="M108.055 59.1123H111.033L115.49 71.7082H112.636L111.804 69.119H107.166L106.312 71.7082H103.56L108.055 59.1123ZM107.883 66.9481H111.108L109.517 61.9916L107.883 66.9481Z" fill="black"/>
<path d="M124.952 59.1123V61.3419H121.184V71.7068H118.535V61.3419H114.749V59.1123H124.952Z" fill="black"/>
<path d="M128.892 71.7082H126.277V59.1123H128.892V71.7082Z" fill="black"/>
<path d="M138.723 59.1123H141.458L137.165 71.7082H134.678L130.418 59.1123H133.229L135.964 68.6738L138.723 59.1123Z" fill="black"/>
<path d="M152.339 61.3433H145.674V64.018H151.792V66.2049H145.674V69.4438H152.646V71.7082H143.102V59.1123H152.339V61.3433Z" fill="black"/>
<path d="M156.595 67.8203C156.677 68.3965 156.837 68.8256 157.075 69.1103C157.511 69.6289 158.258 69.8882 159.317 69.8882C159.95 69.8882 160.465 69.8201 160.861 69.6837C161.611 69.4217 161.986 68.9352 161.986 68.2227C161.986 67.807 161.802 67.4848 161.436 67.2576C161.068 67.0357 160.485 66.8392 159.687 66.6681L158.324 66.3687C156.983 66.0719 156.063 65.7511 155.562 65.4035C154.713 64.8221 154.289 63.9145 154.289 62.678C154.289 61.5498 154.705 60.6128 155.535 59.8669C156.365 59.121 157.586 58.748 159.194 58.748C160.537 58.748 161.683 59.0996 162.632 59.8027C163.581 60.5058 164.078 61.5271 164.124 62.8665H161.595C161.548 62.1085 161.21 61.5712 160.579 61.2517C160.158 61.0405 159.635 60.9349 159.011 60.9349C158.316 60.9349 157.761 61.0713 157.347 61.3453C156.932 61.6193 156.725 62.0003 156.725 62.4909C156.725 62.9413 156.93 63.2768 157.339 63.4987C157.602 63.6471 158.159 63.8209 159.012 64.02L161.223 64.5414C162.192 64.7699 162.918 65.0747 163.402 65.4557C164.153 66.0478 164.529 66.906 164.529 68.0275C164.529 69.1784 164.084 70.1342 163.195 70.8948C162.304 71.6554 161.048 72.035 159.425 72.035C157.766 72.035 156.463 71.6607 155.513 70.9108C154.562 70.1623 154.088 69.1317 154.088 67.8217H156.595V67.8203Z" fill="black"/>
<path d="M171.232 59.1123H173.864V69.4438H180.153V71.7082H171.232V59.1123Z" fill="black"/>
<path d="M189.783 59.1123V61.3419H186.015V71.7068H183.366V61.3419H179.58V59.1123H189.783Z" fill="black"/>
<path d="M198.702 59.3877C199.585 59.6777 200.301 60.2111 200.849 60.985C201.287 61.612 201.587 62.2897 201.747 63.0182C201.906 63.748 201.986 64.4418 201.986 65.1035C201.986 66.7784 201.649 68.1966 200.977 69.3582C200.065 70.9249 198.656 71.7082 196.753 71.7082H191.323V59.1123H196.753C197.532 59.1257 198.183 59.2166 198.702 59.3877ZM193.876 61.3005V69.5213H196.307C197.55 69.5213 198.417 68.9091 198.908 67.6847C199.176 67.0123 199.31 66.2116 199.31 65.2839C199.31 64.002 199.11 63.0182 198.707 62.3311C198.305 61.644 197.504 61.3018 196.307 61.3018H193.876V61.3005Z" fill="black"/>
</svg>
