<svg width="24" height="25" viewBox="0 0 24 25" fill="none" xmlns="http://www.w3.org/2000/svg">
<rect x="0.1" y="0.6" width="23.8" height="23.8" rx="3.9" fill="#FFFAF5" stroke="#F89C2A" stroke-width="0.2"/>
<path d="M9.33325 8.33301C9.05992 8.33301 8.83325 8.10634 8.83325 7.83301V5.83301C8.83325 5.55967 9.05992 5.33301 9.33325 5.33301C9.60659 5.33301 9.83325 5.55967 9.83325 5.83301V7.83301C9.83325 8.10634 9.60659 8.33301 9.33325 8.33301Z" fill="#F89C2A"/>
<path d="M14.6667 8.33301C14.3934 8.33301 14.1667 8.10634 14.1667 7.83301V5.83301C14.1667 5.55967 14.3934 5.33301 14.6667 5.33301C14.9401 5.33301 15.1667 5.55967 15.1667 5.83301V7.83301C15.1667 8.10634 14.9401 8.33301 14.6667 8.33301Z" fill="#F89C2A"/>
<path d="M9.66667 14.1668C9.49333 14.1668 9.32 14.0935 9.19333 13.9735C9.07333 13.8468 9 13.6801 9 13.5001C9 13.4135 9.02 13.3268 9.05333 13.2468C9.08667 13.1668 9.13333 13.0935 9.19333 13.0268C9.44 12.7801 9.88667 12.7801 10.14 13.0268C10.26 13.1535 10.3333 13.3268 10.3333 13.5001C10.3333 13.5401 10.3267 13.5868 10.32 13.6335C10.3133 13.6735 10.3 13.7135 10.28 13.7535C10.2667 13.7935 10.2467 13.8335 10.22 13.8735C10.1933 13.9068 10.1667 13.9401 10.14 13.9735C10.0133 14.0935 9.84 14.1668 9.66667 14.1668Z" fill="#F89C2A"/>
<path d="M11.9999 14.1665C11.9133 14.1665 11.8266 14.1466 11.7466 14.1132C11.6599 14.0799 11.5933 14.0332 11.5266 13.9732C11.4066 13.8465 11.3333 13.6799 11.3333 13.4999C11.3333 13.4132 11.3533 13.3265 11.3866 13.2465C11.4199 13.1665 11.4666 13.0932 11.5266 13.0266C11.5933 12.9666 11.6599 12.9199 11.7466 12.8865C11.9933 12.7865 12.2866 12.8399 12.4733 13.0266C12.5933 13.1532 12.6666 13.3265 12.6666 13.4999C12.6666 13.5399 12.6599 13.5866 12.6533 13.6332C12.6466 13.6732 12.6333 13.7132 12.6133 13.7532C12.5999 13.7932 12.5799 13.8332 12.5533 13.8732C12.5333 13.9065 12.4999 13.9399 12.4733 13.9732C12.3466 14.0932 12.1733 14.1665 11.9999 14.1665Z" fill="#F89C2A"/>
<path d="M9.66667 16.4995C9.58 16.4995 9.49334 16.4795 9.41334 16.4462C9.32667 16.4129 9.25333 16.3662 9.19333 16.3062C9.13333 16.2462 9.08667 16.1729 9.05333 16.0862C9.02 16.0062 9 15.9195 9 15.8329C9 15.7462 9.02 15.6595 9.05333 15.5795C9.08667 15.4929 9.13333 15.4195 9.19333 15.3595C9.25333 15.2995 9.32667 15.2529 9.41334 15.2195C9.57334 15.1529 9.76 15.1462 9.92 15.2195C10.0067 15.2529 10.08 15.2995 10.14 15.3595C10.2 15.4195 10.2467 15.4929 10.28 15.5795C10.3133 15.6595 10.3333 15.7462 10.3333 15.8329C10.3333 15.9195 10.3133 16.0062 10.28 16.0862C10.2467 16.1729 10.2 16.2462 10.14 16.3062C10.08 16.3662 10.0067 16.4129 9.92 16.4462C9.84 16.4795 9.75333 16.4995 9.66667 16.4995Z" fill="#F89C2A"/>
<path d="M17.6666 11.0596H6.33325C6.05992 11.0596 5.83325 10.8329 5.83325 10.5596C5.83325 10.2862 6.05992 10.0596 6.33325 10.0596H17.6666C17.9399 10.0596 18.1666 10.2862 18.1666 10.5596C18.1666 10.8329 17.9399 11.0596 17.6666 11.0596Z" fill="#F89C2A"/>
<path d="M15.9999 20.3333C15.2199 20.3333 14.4799 20.0533 13.9133 19.54C13.6733 19.34 13.4599 19.0867 13.2866 18.7933C12.9933 18.3133 12.8333 17.7467 12.8333 17.1667C12.8333 15.42 14.2533 14 15.9999 14C16.9066 14 17.7733 14.3933 18.3733 15.0733C18.8866 15.66 19.1666 16.4 19.1666 17.1667C19.1666 17.7467 19.0066 18.3133 18.7066 18.8C18.1466 19.7467 17.1066 20.3333 15.9999 20.3333ZM15.9999 15C14.8066 15 13.8333 15.9733 13.8333 17.1667C13.8333 17.56 13.9399 17.9467 14.1466 18.28C14.2599 18.48 14.4066 18.6467 14.5666 18.7867C14.9666 19.1467 15.4666 19.3333 15.9999 19.3333C16.7666 19.3333 17.4599 18.94 17.8533 18.2867C18.0599 17.9467 18.1666 17.5667 18.1666 17.1667C18.1666 16.6467 17.9733 16.14 17.6266 15.7333C17.2133 15.2667 16.6199 15 15.9999 15Z" fill="#F89C2A"/>
<path d="M15.62 18.3267C15.4933 18.3267 15.3667 18.28 15.2667 18.18L14.6067 17.52C14.4133 17.3267 14.4133 17.0067 14.6067 16.8134C14.8 16.62 15.12 16.62 15.3133 16.8134L15.6333 17.1334L16.7 16.1467C16.9 15.96 17.22 15.9734 17.4067 16.1734C17.5933 16.3734 17.58 16.6934 17.38 16.88L15.96 18.1934C15.86 18.28 15.74 18.3267 15.62 18.3267Z" fill="#F89C2A"/>
<path d="M14.2467 19.6663H9.33333C6.9 19.6663 5.5 18.2663 5.5 15.833V10.1663C5.5 7.73301 6.9 6.33301 9.33333 6.33301H14.6667C17.1 6.33301 18.5 7.73301 18.5 10.1663V15.4063C18.5 15.613 18.3733 15.7997 18.1733 15.873C17.98 15.9463 17.76 15.893 17.62 15.733C17.2067 15.2663 16.6133 14.9997 15.9933 14.9997C14.8 14.9997 13.8267 15.973 13.8267 17.1663C13.8267 17.5597 13.9333 17.9463 14.14 18.2797C14.2533 18.4797 14.4 18.6463 14.56 18.7863C14.72 18.9197 14.78 19.1397 14.7067 19.3397C14.6467 19.533 14.46 19.6663 14.2467 19.6663ZM9.33333 7.33301C7.42667 7.33301 6.5 8.25967 6.5 10.1663V15.833C6.5 17.7397 7.42667 18.6663 9.33333 18.6663H13.2133C12.9667 18.213 12.8333 17.6997 12.8333 17.1663C12.8333 15.4197 14.2533 13.9997 16 13.9997C16.5267 13.9997 17.0467 14.133 17.5 14.3797V10.1663C17.5 8.25967 16.5733 7.33301 14.6667 7.33301H9.33333Z" fill="#F89C2A"/>
</svg>
