<svg width="12" height="13" viewBox="0 0 12 13" fill="none" xmlns="http://www.w3.org/2000/svg">
<path d="M2.49997 9.62522C2.40497 9.62522 2.30997 9.59022 2.23497 9.51522C2.08997 9.37022 2.08997 9.13022 2.23497 8.98522L9.23497 1.98521C9.37997 1.84021 9.61997 1.84021 9.76497 1.98521C9.90997 2.13021 9.90997 2.37021 9.76497 2.51521L2.76497 9.51522C2.68997 9.59022 2.59497 9.62522 2.49997 9.62522Z" fill="#CC0000"/>
<path d="M7.635 9.62523H2.5C2.295 9.62523 2.125 9.45523 2.125 9.25023V4.11523C2.125 3.91023 2.295 3.74023 2.5 3.74023C2.705 3.74023 2.875 3.91023 2.875 4.11523V8.87523H7.635C7.84 8.87523 8.01 9.04523 8.01 9.25023C8.01 9.45523 7.84 9.62523 7.635 9.62523Z" fill="#CC0000"/>
<path d="M10.25 11.875H1.75C1.545 11.875 1.375 11.705 1.375 11.5C1.375 11.295 1.545 11.125 1.75 11.125H10.25C10.455 11.125 10.625 11.295 10.625 11.5C10.625 11.705 10.455 11.875 10.25 11.875Z" fill="#CC0000"/>
</svg>
