<svg width="16" height="16" viewBox="0 0 16 16" fill="none" xmlns="http://www.w3.org/2000/svg">
<path d="M13.3334 4.66659V13.3333C13.3334 13.6869 13.1929 14.026 12.9429 14.2761C12.6928 14.5261 12.3537 14.6666 12 14.6666H4.00004C3.64642 14.6666 3.30728 14.5261 3.05723 14.2761C2.80718 14.026 2.66671 13.6869 2.66671 13.3333V4.66659H1.33337V3.33325H14.6667V4.66659H13.3334ZM4.00004 4.66659V13.3333H12V4.66659H4.00004ZM7.33337 5.99992H8.66671V7.33325H7.33337V5.99992ZM7.33337 7.99992H8.66671V9.33325H7.33337V7.99992ZM7.33337 9.99992H8.66671V11.3333H7.33337V9.99992ZM4.66671 1.33325H11.3334V2.66659H4.66671V1.33325Z" fill="#1E1E1E"/>
</svg>
