<svg width="44" height="44" viewBox="0 0 44 44" fill="none" xmlns="http://www.w3.org/2000/svg">
<rect x="0.25" y="0.25" width="43.5" height="43.5" rx="3.75" fill="#FFFAF5"/>
<rect x="0.25" y="0.25" width="43.5" height="43.5" rx="3.75" stroke="#F89C2A" stroke-width="0.5"/>
<g clip-path="url(#clip0_912_38323)">
<path fill-rule="evenodd" clip-rule="evenodd" d="M23.0259 12.2701C23.2408 12.1986 23.4691 12.1767 23.6938 12.206C23.9184 12.2353 24.1335 12.3151 24.3228 12.4394C24.5122 12.5638 24.6709 12.7293 24.7872 12.9238C24.9034 13.1182 24.9741 13.3365 24.9939 13.5621L24.9999 13.6941V19.1801L28.7939 19.9401C29.11 20.0031 29.3975 20.1663 29.6136 20.4055C29.8298 20.6447 29.9631 20.9472 29.9939 21.2681L29.9999 21.4101V29.0001H30.9999C31.2547 29.0004 31.4999 29.098 31.6852 29.273C31.8706 29.448 31.9821 29.6871 31.997 29.9415C32.012 30.196 31.9292 30.4465 31.7656 30.642C31.602 30.8374 31.37 30.963 31.1169 30.9931L30.9999 31.0001H12.9999C12.745 30.9999 12.4998 30.9023 12.3145 30.7273C12.1292 30.5523 12.0176 30.3132 12.0027 30.0587C11.9878 29.8043 12.0705 29.5538 12.2341 29.3583C12.3977 29.1629 12.6298 29.0372 12.8829 29.0071L12.9999 29.0001H13.9999V16.3601C13.9999 15.7601 14.3559 15.2241 14.8979 14.9861L15.0259 14.9371L23.0259 12.2701ZM22.9999 14.3881L15.9999 16.7211V29.0001H22.9999V14.3881ZM24.9999 21.2211V29.0001H27.9999V21.8201L24.9999 21.2211Z" fill="#F89C2A"/>
</g>
<defs>
<clipPath id="clip0_912_38323">
<rect width="24" height="24" fill="white" transform="translate(10 10)"/>
</clipPath>
</defs>
</svg>
