<svg width="16" height="17" viewBox="0 0 16 17" fill="none" xmlns="http://www.w3.org/2000/svg">
<g clip-path="url(#clip0_765_1302)">
<path d="M13 9.60254V7.85254C13 6.6099 11.9926 5.60254 10.75 5.60254H9.75C9.33579 5.60254 9 5.26675 9 4.85254V3.85254C9 2.6099 7.99264 1.60254 6.75 1.60254H5.5M5.5 10.1025H10.5M5.5 12.1025H8M7 1.60254H3.75C3.33579 1.60254 3 1.93833 3 2.35254V13.8525C3 14.2668 3.33579 14.6025 3.75 14.6025H12.25C12.6642 14.6025 13 14.2668 13 13.8525V7.60254C13 4.28883 10.3137 1.60254 7 1.60254Z" stroke="#686868" stroke-width="1.5" stroke-linecap="round" stroke-linejoin="round"/>
</g>
<defs>
<clipPath id="clip0_765_1302">
<rect width="16" height="16" fill="white" transform="translate(0 0.102539)"/>
</clipPath>
</defs>
</svg>
