<svg width="14" height="14" viewBox="0 0 14 14" fill="none" xmlns="http://www.w3.org/2000/svg">
<path d="M8.90166 12.9792H5.09832C2.23416 12.9792 1.00916 11.7542 1.00916 8.88999V8.81416C1.00916 6.22416 2.02999 4.97583 4.31666 4.75999C4.54999 4.74249 4.77166 4.91749 4.79499 5.15666C4.81832 5.39583 4.64332 5.61166 4.39832 5.63499C2.56666 5.80416 1.88416 6.66749 1.88416 8.81999V8.89583C1.88416 11.27 2.72416 12.11 5.09832 12.11H8.90166C11.2758 12.11 12.1158 11.27 12.1158 8.89583V8.81999C12.1158 6.65583 11.4217 5.79249 9.55499 5.63499C9.31582 5.61166 9.13499 5.40166 9.15832 5.16249C9.18166 4.92333 9.38582 4.74249 9.63082 4.76583C11.9525 4.96416 12.9908 6.21833 12.9908 8.82583V8.90166C12.9908 11.7542 11.7658 12.9792 8.90166 12.9792Z" fill="#1E1E1E"/>
<path d="M7 9.11758C6.76083 9.11758 6.5625 8.91925 6.5625 8.68008V1.16675C6.5625 0.927581 6.76083 0.729248 7 0.729248C7.23917 0.729248 7.4375 0.927581 7.4375 1.16675V8.68008C7.4375 8.92508 7.23917 9.11758 7 9.11758Z" fill="#1E1E1E"/>
<path d="M6.99995 9.77082C6.88912 9.77082 6.77828 9.72999 6.69078 9.64249L4.73662 7.68832C4.56745 7.51916 4.56745 7.23916 4.73662 7.06999C4.90578 6.90082 5.18578 6.90082 5.35495 7.06999L6.99995 8.71499L8.64495 7.06999C8.81412 6.90082 9.09412 6.90082 9.26328 7.06999C9.43245 7.23916 9.43245 7.51916 9.26328 7.68832L7.30912 9.64249C7.22162 9.72999 7.11078 9.77082 6.99995 9.77082Z" fill="#1E1E1E"/>
</svg>
