<svg width="12" height="13" viewBox="0 0 12 13" fill="none" xmlns="http://www.w3.org/2000/svg">
<path d="M1.75 11.875H10.25C10.455 11.875 10.625 11.705 10.625 11.5C10.625 11.295 10.455 11.125 10.25 11.125H1.75C1.545 11.125 1.375 11.295 1.375 11.5C1.375 11.705 1.545 11.875 1.75 11.875Z" fill="#069952"/>
<path d="M2.50003 9.62522C2.59503 9.62522 2.69003 9.59022 2.76503 9.51522L9.76503 2.51521C9.91003 2.37021 9.91003 2.13021 9.76503 1.98521C9.62003 1.84021 9.38003 1.84021 9.23503 1.98521L2.23503 8.98522C2.09003 9.13022 2.09003 9.37022 2.23503 9.51522C2.31003 9.59022 2.40503 9.62522 2.50003 9.62522Z" fill="#069952"/>
<path d="M9.5 7.76C9.705 7.76 9.875 7.59 9.875 7.385V2.25C9.875 2.045 9.705 1.875 9.5 1.875H4.365C4.16 1.875 3.99 2.045 3.99 2.25C3.99 2.455 4.16 2.625 4.365 2.625H9.125V7.385C9.125 7.59 9.295 7.76 9.5 7.76Z" fill="#069952"/>
</svg>
