<svg width="16" height="16" viewBox="0 0 16 16" fill="none" xmlns="http://www.w3.org/2000/svg">
<rect x="16" y="16" width="16" height="16" rx="4" transform="rotate(180 16 16)" fill="#F89C2A"/>
<path d="M9.60002 12.6241C9.49868 12.6241 9.39735 12.5868 9.31735 12.5068L5.84002 9.02944C5.27468 8.46411 5.27468 7.53611 5.84002 6.97077L9.31735 3.49344C9.47202 3.33877 9.72802 3.33877 9.88268 3.49344C10.0373 3.64811 10.0373 3.90411 9.88268 4.05877L6.40535 7.53611C6.14935 7.79211 6.14935 8.20811 6.40535 8.46411L9.88268 11.9414C10.0374 12.0961 10.0374 12.3521 9.88268 12.5068C9.80268 12.5814 9.70135 12.6241 9.60002 12.6241Z" fill="white"/>
</svg>
