<svg width="44" height="44" viewBox="0 0 44 44" fill="none" xmlns="http://www.w3.org/2000/svg">
<rect x="0.25" y="0.25" width="43.5" height="43.5" rx="3.75" fill="#FFFAF5"/>
<rect x="0.25" y="0.25" width="43.5" height="43.5" rx="3.75" stroke="#F89C2A" stroke-width="0.5"/>
<path fill-rule="evenodd" clip-rule="evenodd" d="M17.25 20C17.25 18.7402 17.7504 17.532 18.6412 16.6412C19.532 15.7504 20.7402 15.25 22 15.25C23.2598 15.25 24.468 15.7504 25.3588 16.6412C26.2496 17.532 26.75 18.7402 26.75 20C26.75 21.2598 26.2496 22.468 25.3588 23.3588C24.468 24.2496 23.2598 24.75 22 24.75C20.7402 24.75 19.532 24.2496 18.6412 23.3588C17.7504 22.468 17.25 21.2598 17.25 20ZM22 16.75C21.138 16.75 20.3114 17.0924 19.7019 17.7019C19.0924 18.3114 18.75 19.138 18.75 20C18.75 20.862 19.0924 21.6886 19.7019 22.2981C20.3114 22.9076 21.138 23.25 22 23.25C22.862 23.25 23.6886 22.9076 24.2981 22.2981C24.9076 21.6886 25.25 20.862 25.25 20C25.25 19.138 24.9076 18.3114 24.2981 17.7019C23.6886 17.0924 22.862 16.75 22 16.75Z" fill="#F89C2A"/>
<path fill-rule="evenodd" clip-rule="evenodd" d="M13.5239 18.857C13.6948 16.7838 14.6391 14.8507 16.1693 13.4415C17.6995 12.0323 19.7037 11.25 21.7839 11.25H22.2159C24.2961 11.25 26.3003 12.0323 27.8305 13.4415C29.3607 14.8507 30.305 16.7838 30.4759 18.857C30.6661 21.1663 29.9527 23.4593 28.4859 25.253L23.6929 31.114C23.4878 31.3648 23.2295 31.567 22.9367 31.7057C22.6439 31.8445 22.3239 31.9165 21.9999 31.9165C21.6759 31.9165 21.3559 31.8445 21.0631 31.7057C20.7703 31.567 20.512 31.3648 20.3069 31.114L15.5139 25.253C14.047 23.4593 13.3336 21.1663 13.5239 18.857ZM21.7839 12.75C20.0804 12.7503 18.4392 13.391 17.1862 14.5451C15.9332 15.6992 15.1599 17.2822 15.0199 18.98C14.8615 20.9019 15.4552 22.8102 16.6759 24.303L21.4689 30.165C21.5333 30.2439 21.6145 30.3074 21.7065 30.351C21.7985 30.3947 21.8991 30.4173 22.0009 30.4173C22.1027 30.4173 22.2033 30.3947 22.2953 30.351C22.3873 30.3074 22.4685 30.2439 22.5329 30.165L27.3259 24.303C28.5459 22.8099 29.1388 20.9016 28.9799 18.98C28.8398 17.2821 28.0664 15.6989 26.8132 14.5448C25.56 13.3907 23.9186 12.75 22.2149 12.75H21.7839Z" fill="#F89C2A"/>
</svg>
