<svg width="55" height="21" viewBox="0 0 55 21" fill="none" xmlns="http://www.w3.org/2000/svg">
<path d="M8.0935 14.8648C7.79136 14.5292 2.99962 9.77566 1.64178 8.42983V6.51903L0 4.92712V9.11639L1.64178 10.7283V10.7254C2.63995 11.7199 5.40696 14.4757 5.59916 14.6595C5.83396 14.8845 7.61408 16.2245 7.54091 17.4571C7.46737 18.6897 6.35234 19.1298 5.92206 19.1298C5.49177 19.1298 1.64178 19.1298 1.64178 19.1298V13.0614L0 11.3912V20.7632H1.64178C1.64178 20.7632 4.87037 20.7876 5.45719 20.7632C6.04401 20.7388 8.40621 20.5772 8.99303 18.4647C9.58057 16.3519 8.44589 15.2561 8.0935 14.8648Z" fill="black"/>
<path d="M14.8941 15.1895C14.7721 15.0297 14.6549 14.9008 14.5588 14.8069C14.4245 14.6747 13.5238 13.7807 12.2796 12.5437L11.3873 11.6515C11.3862 11.6522 11.3855 11.6533 11.3844 11.654C11.0998 11.3712 10.8053 11.0781 10.5031 10.7778L10.4114 10.6861C10.3637 10.6384 10.3164 10.591 10.2687 10.5434C7.28253 7.54337 4.4591 4.70611 4.32259 4.5696C4.02882 4.27656 3.91124 3.42582 4.1464 2.90707C4.38047 2.38869 4.8599 1.85029 5.41723 1.85029C5.97529 1.85029 7.61889 1.8208 7.61889 1.8208C7.61889 1.8208 7.91194 0.742543 8.57702 0.225983C8.57702 0.225983 6.45399 0.225983 5.60398 0.225983C4.75287 0.225983 3.1191 0.857578 2.53229 2.5303C2.44419 2.78075 2.39323 3.02611 2.37248 3.26382C2.27928 4.30859 2.75798 5.20629 3.17516 5.75125C3.29711 5.91106 3.41433 6.04065 3.51044 6.13494C3.70483 6.32605 5.51916 8.12837 7.65784 10.2547L7.71754 10.3144C10.7339 13.3446 13.6101 16.2339 13.7474 16.3711C14.0404 16.6642 14.1576 17.5149 13.9235 18.0337C13.6884 18.552 13.209 19.0904 12.6516 19.0904C12.0943 19.0904 10.4511 19.1199 10.4511 19.1199C10.4511 19.1199 10.1573 20.1982 9.49183 20.7147C9.49183 20.7147 11.6149 20.7147 12.4656 20.7147C13.3167 20.7147 14.9497 20.0832 15.5362 18.4104C15.6243 18.16 15.6753 17.9146 15.696 17.6769C15.7899 16.6321 15.3123 15.7344 14.8941 15.1895Z" fill="#F89B2D"/>
<path d="M6.98533 4.94493C8.17499 4.95294 9.43854 4.96168 10.0104 4.96641C11.243 4.97624 12.7931 6.57069 12.9693 7.58306C13.1429 8.58233 13.0348 9.77599 12.5146 10.4746L13.6777 11.6376C14.4647 10.5565 14.942 9.05193 14.539 7.4218C13.8935 4.81024 11.4971 3.36249 10.0297 3.36249C9.10691 3.36249 6.90743 3.36249 5.40216 3.36249L6.98533 4.94493Z" fill="black"/>
<path d="M20.9346 5.25141C21.0394 5.39739 21.0918 5.57176 21.0918 5.77489C21.0918 5.98421 21.0387 6.15276 20.9331 6.2798C20.8738 6.35115 20.7868 6.41631 20.6714 6.47529C20.8465 6.53899 20.9786 6.63983 21.0675 6.7778C21.1566 6.91576 21.2011 7.08358 21.2011 7.28052C21.2011 7.48365 21.1501 7.66603 21.0485 7.8273C20.9837 7.93432 20.9029 8.02424 20.8057 8.09741C20.6961 8.18114 20.5669 8.23865 20.418 8.2696C20.2691 8.30054 20.1075 8.31619 19.9335 8.31619H18.3882V4.88593H20.046C20.4639 4.89248 20.7602 5.01407 20.9346 5.25141ZM19.0722 5.48184V6.2383H19.9058C20.0547 6.2383 20.1756 6.20991 20.2684 6.15348C20.3612 6.09669 20.4078 5.99659 20.4078 5.85207C20.4078 5.69226 20.3463 5.58669 20.2236 5.53572C20.1177 5.50005 19.9826 5.48221 19.8185 5.48221H19.0722V5.48184ZM19.0722 6.80583V7.72027H19.9051C20.0536 7.72027 20.1698 7.70025 20.2524 7.65984C20.4027 7.58522 20.4777 7.44252 20.4777 7.23174C20.4777 7.05337 20.4049 6.93069 20.2593 6.86407C20.1781 6.82694 20.0638 6.80728 19.9164 6.80583H19.0722Z" fill="black"/>
<path d="M24.3547 5.49349H22.5396V6.22192H24.2058V6.81747H22.5396V7.69952H24.4384V8.31619H21.8392V4.88593H24.3547V5.49349Z" fill="black"/>
<path d="M25.5137 7.25758C25.5359 7.41447 25.5796 7.53133 25.6444 7.60886C25.7631 7.75011 25.9666 7.82073 26.2549 7.82073C26.4275 7.82073 26.5676 7.80217 26.6754 7.76503C26.8796 7.69368 26.9819 7.56118 26.9819 7.36715C26.9819 7.25394 26.9316 7.1662 26.8319 7.10432C26.7318 7.04389 26.5731 6.99038 26.3557 6.94378L25.9844 6.86224C25.6193 6.78142 25.3688 6.69405 25.2323 6.59941C25.0012 6.44105 24.8858 6.19387 24.8858 5.85715C24.8858 5.5499 24.999 5.29472 25.2251 5.09159C25.4511 4.88846 25.7835 4.7869 26.2214 4.7869C26.5873 4.7869 26.8992 4.88263 27.1577 5.07411C27.4162 5.2656 27.5516 5.54372 27.564 5.90848H26.8752C26.8625 5.70207 26.7704 5.55573 26.5985 5.46873C26.4839 5.41121 26.3415 5.38245 26.1715 5.38245C25.9822 5.38245 25.8312 5.41958 25.7183 5.49421C25.6055 5.56883 25.549 5.67258 25.549 5.80618C25.549 5.92886 25.6047 6.02023 25.7161 6.08066C25.7878 6.12107 25.9396 6.16839 26.1719 6.22263L26.774 6.36461C27.0379 6.42685 27.2356 6.50985 27.3674 6.6136C27.572 6.77487 27.6743 7.00858 27.6743 7.314C27.6743 7.62743 27.553 7.88771 27.311 8.09485C27.0685 8.30198 26.7263 8.40536 26.2844 8.40536C25.8326 8.40536 25.4777 8.30344 25.2189 8.09921C24.96 7.89536 24.8308 7.61469 24.8308 7.25794H25.5137V7.25758Z" fill="#F89B2D"/>
<path d="M30.4783 6.83167C30.2774 6.99913 29.9909 7.08285 29.6181 7.08285H28.9039V8.31619H28.1918V4.88593H29.6647C30.0043 4.88593 30.2748 4.97439 30.4769 5.15131C30.6789 5.32822 30.7797 5.60197 30.7797 5.97292C30.7797 6.37772 30.6793 6.66422 30.4783 6.83167ZM29.9315 5.59579C29.8409 5.5197 29.7135 5.48184 29.55 5.48184H28.9042V6.49167H29.55C29.7135 6.49167 29.8409 6.45053 29.9315 6.36826C30.0222 6.28599 30.0677 6.15567 30.0677 5.97729C30.0677 5.79928 30.0222 5.67187 29.9315 5.59579Z" fill="#F89B2D"/>
<path d="M33.9957 8.01148C33.7365 8.27831 33.3619 8.41191 32.8716 8.41191C32.3812 8.41191 32.0066 8.27831 31.7474 8.01148C31.3998 7.68421 31.2261 7.21243 31.2261 6.59649C31.2261 5.96817 31.3998 5.49675 31.7474 5.1815C32.0066 4.91467 32.3812 4.78107 32.8716 4.78107C33.3619 4.78107 33.7365 4.91467 33.9957 5.1815C34.3415 5.49639 34.5144 5.96817 34.5144 6.59649C34.5148 7.21243 34.3415 7.68421 33.9957 8.01148ZM33.5476 7.49019C33.7143 7.28087 33.7977 6.98273 33.7977 6.59649C33.7977 6.21171 33.7143 5.9143 33.5476 5.70389C33.3808 5.49384 33.1555 5.38863 32.8716 5.38863C32.5876 5.38863 32.3612 5.49348 32.1919 5.70279C32.0226 5.91211 31.9382 6.21025 31.9382 6.59649C31.9382 6.98273 32.0226 7.28051 32.1919 7.49019C32.3608 7.69951 32.5876 7.80434 32.8716 7.80434C33.1555 7.80434 33.3808 7.69951 33.5476 7.49019Z" fill="#F89B2D"/>
<path d="M35.0733 4.88626H35.7784V6.29943L37.1035 4.88626H38.0296L36.6219 6.29688L38.1017 8.31616H37.1803L36.1235 6.8189L35.7784 7.1691V8.31616H35.0733V4.88626Z" fill="#F89B2D"/>
<path d="M41.0398 5.49349H39.2247V6.22192H40.8909V6.81747H39.2247V7.69952H41.1235V8.31619H38.5243V4.88593H41.0398V5.49349Z" fill="#F89B2D"/>
<path d="M19.0303 14.0351H18.3183V10.6049H19.0303V14.0351Z" fill="black"/>
<path d="M19.6888 10.6053H20.4401L21.8016 12.9969V10.6053H22.4696V14.0355H21.7532L20.3568 11.6016V14.0355H19.6888V10.6053Z" fill="black"/>
<path d="M23.1425 10.61H25.5884V11.2128H23.8549V12.0017H25.3744V12.5972H23.8549V14.0355H23.1425V10.61Z" fill="black"/>
<path d="M28.6946 13.7304C28.4354 13.9972 28.0608 14.1308 27.5705 14.1308C27.0801 14.1308 26.7055 13.9972 26.4463 13.7304C26.0987 13.4031 25.925 12.9314 25.925 12.3154C25.925 11.6871 26.0987 11.2157 26.4463 10.9004C26.7055 10.6336 27.0801 10.5 27.5705 10.5C28.0608 10.5 28.4354 10.6336 28.6946 10.9004C29.0404 11.2153 29.2133 11.6871 29.2133 12.3154C29.2137 12.9314 29.0404 13.4031 28.6946 13.7304ZM28.2465 13.2091C28.4132 12.9998 28.4966 12.7017 28.4966 12.3154C28.4966 11.9306 28.4132 11.6332 28.2465 11.4228C28.0797 11.2128 27.8544 11.1076 27.5705 11.1076C27.2865 11.1076 27.0601 11.2124 26.8908 11.4217C26.7215 11.631 26.6371 11.9292 26.6371 12.3154C26.6371 12.7017 26.7215 12.9994 26.8908 13.2091C27.0597 13.4184 27.2865 13.5233 27.5705 13.5233C27.8544 13.5233 28.0797 13.4184 28.2465 13.2091Z" fill="black"/>
<path d="M32.2527 10.6053V11.2125H31.2265V14.0352H30.505V11.2125H29.4741V10.6053H32.2527Z" fill="black"/>
<path d="M35.2084 11.2124H33.3933V11.9409H35.0595V12.5364H33.3933V13.4185H35.2921V14.0351H32.6929V10.6049H35.2084V11.2124Z" fill="black"/>
<path d="M36.1782 10.9634C36.4545 10.6809 36.8058 10.5401 37.2324 10.5401C37.8032 10.5401 38.2208 10.7294 38.4847 11.108C38.6307 11.3206 38.7086 11.5339 38.7195 11.7479H38.0027C37.9572 11.5834 37.8986 11.4592 37.8272 11.3755C37.6995 11.2266 37.5105 11.152 37.2597 11.152C37.0045 11.152 36.8029 11.2572 36.6554 11.4673C36.508 11.6777 36.4345 11.9751 36.4345 12.3599C36.4345 12.7446 36.5124 13.033 36.6678 13.2244C36.8232 13.4159 37.0209 13.512 37.2608 13.512C37.5065 13.512 37.694 13.4297 37.8232 13.2652C37.8946 13.1767 37.9536 13.0442 38.0009 12.8673H38.7129C38.6514 13.2412 38.4945 13.5451 38.2422 13.7796C37.9896 14.014 37.6663 14.1309 37.2717 14.1309C36.7836 14.1309 36.3999 13.9725 36.1207 13.6562C35.8414 13.338 35.7017 12.9023 35.7017 12.3482C35.7017 11.7494 35.8604 11.2878 36.1782 10.9634Z" fill="black"/>
<path d="M39.2873 14.0351V10.6049H39.9993V11.9128H41.3328V10.6049H42.0448V14.0351H41.3328V12.504H39.9993V14.0351H39.2873Z" fill="black"/>
<path d="M44.1067 12.6016C44.209 12.4541 44.3768 12.3082 44.6094 12.164L44.6815 12.12C44.5821 12.0082 44.5053 11.8939 44.4511 11.7774C44.3968 11.6609 44.3695 11.5397 44.3695 11.4137C44.3695 11.1637 44.4543 10.9682 44.624 10.8277C44.7936 10.6871 45.0135 10.6169 45.2832 10.6169C45.5297 10.6169 45.7335 10.689 45.8944 10.8328C46.0553 10.9765 46.1358 11.1607 46.1358 11.385C46.1358 11.5874 46.0874 11.7516 45.9909 11.8775C45.8944 12.0035 45.7528 12.1203 45.5661 12.2277L46.059 12.8255C46.1154 12.7446 46.1591 12.6573 46.1897 12.5626C46.2202 12.468 46.2363 12.3679 46.2381 12.2623H46.8267C46.8158 12.4709 46.7656 12.6817 46.6756 12.895C46.6261 13.0148 46.5457 13.1469 46.4343 13.2918L47.0568 14.0355H46.2541L46.0157 13.745C45.8995 13.8528 45.7914 13.9321 45.6909 13.9838C45.5122 14.0759 45.3058 14.1218 45.0725 14.1218C44.7212 14.1218 44.4467 14.0195 44.249 13.8145C44.0513 13.6096 43.9527 13.3824 43.9527 13.1327C43.9531 12.9259 44.0044 12.749 44.1067 12.6016ZM44.755 13.4232C44.8489 13.5178 44.9694 13.5652 45.1161 13.5652C45.2268 13.5652 45.3313 13.5404 45.4299 13.4905C45.5286 13.4407 45.6087 13.385 45.6702 13.3238L45.0284 12.5426C44.8606 12.6529 44.7492 12.7501 44.6953 12.8338C44.6414 12.9176 44.6141 13.01 44.6141 13.1112C44.6141 13.2241 44.6611 13.3282 44.755 13.4232ZM45.047 11.5859C45.0761 11.6311 45.1387 11.7112 45.2352 11.8262C45.3316 11.761 45.4008 11.7057 45.4427 11.6606C45.5231 11.5765 45.5632 11.4858 45.5632 11.3875C45.5632 11.3162 45.5391 11.2525 45.4907 11.1964C45.4423 11.1404 45.3691 11.1123 45.2712 11.1123C45.2101 11.1123 45.1529 11.1287 45.0998 11.1615C45.0193 11.2095 44.9793 11.286 44.9793 11.3901C44.9796 11.452 45.0018 11.5175 45.047 11.5859Z" fill="black"/>
<path d="M18.7042 16.6824C18.9805 16.3999 19.3318 16.259 19.7584 16.259C20.3292 16.259 20.7468 16.4483 21.0107 16.8269C21.1567 17.0395 21.2346 17.2528 21.2455 17.4669H20.5287C20.4832 17.3023 20.4246 17.1782 20.3532 17.0945C20.2255 16.9456 20.0365 16.8709 19.7857 16.8709C19.5305 16.8709 19.3289 16.9761 19.1814 17.1862C19.034 17.3966 18.9605 17.694 18.9605 18.0788C18.9605 18.4636 19.0384 18.7519 19.1938 18.9434C19.3492 19.1348 19.5469 19.231 19.7868 19.231C20.0325 19.231 20.22 19.1487 20.3492 18.9841C20.4206 18.8957 20.4796 18.7632 20.5269 18.5863H21.2389C21.1774 18.9601 21.0205 19.2641 20.7682 19.4985C20.5156 19.733 20.1923 19.8498 19.7977 19.8498C19.3096 19.8498 18.9259 19.6915 18.6467 19.3751C18.3674 19.0569 18.2277 18.6212 18.2277 18.0671C18.2277 17.4683 18.3864 17.0067 18.7042 16.6824Z" fill="black"/>
<path d="M24.0165 16.4126C24.1429 16.4669 24.2499 16.5469 24.3376 16.6522C24.4101 16.7392 24.4676 16.8353 24.5102 16.9408C24.5524 17.0464 24.5739 17.1665 24.5739 17.3016C24.5739 17.4643 24.5327 17.6248 24.4505 17.7821C24.3682 17.9397 24.2324 18.0508 24.0431 18.1159C24.2015 18.1796 24.3132 18.2699 24.3795 18.3871C24.4454 18.5043 24.4785 18.6831 24.4785 18.9233V19.1538C24.4785 19.3107 24.4847 19.4166 24.4974 19.4727C24.5164 19.5611 24.5604 19.6263 24.6299 19.6681V19.7544H23.8389C23.8171 19.6783 23.8018 19.6172 23.7923 19.5706C23.7737 19.4745 23.7635 19.3758 23.7621 19.275L23.7573 18.9561C23.7544 18.7373 23.7166 18.5917 23.6441 18.5185C23.5713 18.4457 23.4355 18.4093 23.2357 18.4093H22.5357V19.7544H21.8353V16.3242H23.476C23.7097 16.3289 23.8902 16.3584 24.0165 16.4126ZM22.5349 16.9197V17.8411H23.3063C23.4596 17.8411 23.5746 17.8225 23.6511 17.7854C23.7865 17.7202 23.8545 17.5914 23.8545 17.3991C23.8545 17.1913 23.789 17.0515 23.658 16.9801C23.5844 16.9397 23.4738 16.9197 23.3263 16.9197H22.5349Z" fill="black"/>
<path d="M27.7966 16.9314H25.9815V17.6598H27.6477V18.2553H25.9815V19.1374H27.8803V19.7541H25.2811V16.3238H27.7966V16.9314Z" fill="black"/>
<path d="M29.4194 16.3242H30.2305L31.4442 19.7544H30.667L30.4405 19.0493H29.1773L28.9447 19.7544H28.1952L29.4194 16.3242ZM29.3725 18.4581H30.2509L29.8177 17.1083L29.3725 18.4581Z" fill="black"/>
<path d="M34.0211 16.3242V16.9314H32.9949V19.7541H32.2734V16.9314H31.2425V16.3242H34.0211Z" fill="black"/>
<path d="M35.0939 19.7541H34.3819V16.3238H35.0939V19.7541Z" fill="black"/>
<path d="M37.7714 16.3242H38.5162L37.347 19.7544H36.6699L35.5097 16.3242H36.2753L37.0201 18.9281L37.7714 16.3242Z" fill="black"/>
<path d="M41.4794 16.9314H39.6643V17.6598H41.3305V18.2553H39.6643V19.1374H41.5631V19.7541H38.9639V16.3238H41.4794V16.9314Z" fill="black"/>
<path d="M42.6386 18.6954C42.6608 18.8523 42.7044 18.9692 42.7692 19.0467C42.8879 19.188 43.0914 19.2586 43.3797 19.2586C43.5523 19.2586 43.6924 19.24 43.8002 19.2029C44.0044 19.1315 44.1067 18.999 44.1067 18.805C44.1067 18.6918 44.0565 18.6041 43.9567 18.5422C43.8566 18.4818 43.6979 18.4282 43.4806 18.3816L43.1092 18.3001C42.7441 18.2193 42.4937 18.1319 42.3572 18.0373C42.126 17.8789 42.0106 17.6317 42.0106 17.295C42.0106 16.9878 42.1238 16.7326 42.3499 16.5295C42.5759 16.3263 42.9083 16.2248 43.3462 16.2248C43.7121 16.2248 44.0241 16.3205 44.2825 16.512C44.541 16.7035 44.6764 16.9816 44.6888 17.3463H44C43.9873 17.1399 43.8952 16.9936 43.7234 16.9066C43.6087 16.8491 43.4664 16.8203 43.2964 16.8203C43.1071 16.8203 42.956 16.8574 42.8431 16.9321C42.7303 17.0067 42.6739 17.1104 42.6739 17.244C42.6739 17.3667 42.7296 17.4581 42.841 17.5185C42.9127 17.5589 43.0645 17.6063 43.2967 17.6605L43.8988 17.8025C44.1627 17.8647 44.3604 17.9477 44.4922 18.0515C44.6968 18.2127 44.7991 18.4464 44.7991 18.7519C44.7991 19.0653 44.6779 19.3256 44.4358 19.5327C44.1933 19.7398 43.8511 19.8432 43.4092 19.8432C42.9574 19.8432 42.6025 19.7413 42.3437 19.5371C42.0849 19.3332 41.9556 19.0526 41.9556 18.6958H42.6386V18.6954Z" fill="black"/>
<path d="M46.6246 16.3242H47.3414V19.1378H49.0542V19.7544H46.6246V16.3242Z" fill="black"/>
<path d="M51.6767 16.3242V16.9314H50.6505V19.7541H49.9289V16.9314H48.898V16.3242H51.6767Z" fill="black"/>
<path d="M54.1055 16.3988C54.3461 16.4778 54.5409 16.623 54.6902 16.8338C54.8096 17.0045 54.8911 17.1891 54.9348 17.3875C54.9781 17.5863 54.9999 17.7752 54.9999 17.9554C54.9999 18.4115 54.9082 18.7977 54.7251 19.1141C54.4768 19.5407 54.0931 19.7541 53.5748 19.7541H52.0961V16.3238H53.5748C53.787 16.3274 53.9643 16.3522 54.1055 16.3988ZM52.7914 16.9197V19.1585H53.4532C53.7917 19.1585 54.028 18.9918 54.1616 18.6583C54.2348 18.4752 54.2712 18.2572 54.2712 18.0045C54.2712 17.6554 54.2166 17.3875 54.107 17.2004C53.9974 17.0133 53.7794 16.9201 53.4532 16.9201H52.7914V16.9197Z" fill="black"/>
</svg>
