<svg width="52" height="52" viewBox="0 0 52 52" fill="none" xmlns="http://www.w3.org/2000/svg">
<rect x="0.25" y="0.25" width="51.5" height="51.5" rx="3.75" fill="#FFFAF5"/>
<rect x="0.25" y="0.25" width="51.5" height="51.5" rx="3.75" stroke="#F89C2A" stroke-width="0.5"/>
<path d="M24 19C24.7911 19 25.5645 18.7654 26.2223 18.3259C26.8801 17.8864 27.3928 17.2616 27.6955 16.5307C27.9983 15.7998 28.0775 14.9956 27.9231 14.2196C27.7688 13.4437 27.3878 12.731 26.8284 12.1716C26.269 11.6122 25.5563 11.2312 24.7804 11.0769C24.0044 10.9225 23.2002 11.0017 22.4693 11.3045C21.7384 11.6072 21.1136 12.1199 20.6741 12.7777C20.2346 13.4355 20 14.2089 20 15C20.0012 16.0605 20.423 17.0772 21.1729 17.8271C21.9228 18.577 22.9395 18.9988 24 19ZM24 13C24.3956 13 24.7822 13.1173 25.1111 13.3371C25.44 13.5568 25.6964 13.8692 25.8478 14.2346C25.9991 14.6001 26.0387 15.0022 25.9616 15.3902C25.8844 15.7781 25.6939 16.1345 25.4142 16.4142C25.1345 16.6939 24.7781 16.8844 24.3902 16.9616C24.0022 17.0387 23.6001 16.9991 23.2346 16.8478C22.8692 16.6964 22.5568 16.44 22.3371 16.1111C22.1173 15.7822 22 15.3956 22 15C22.0006 14.4698 22.2115 13.9614 22.5864 13.5864C22.9614 13.2115 23.4697 13.0006 24 13ZM32.1224 25.7106C31.1836 24.6544 29.931 23.9819 28.2093 23.6165L26.6594 20H21.1327L19.5 31.4289V35H23V41H29V35H34V32C34 29.1893 33.3859 27.132 32.1224 25.7106ZM32 33H27V39H25V33H21.5V31.5711L22.8673 22H25.3406L26.7962 25.3965L27.3356 25.4864C28.8668 25.7416 29.9126 26.2351 30.6276 27.0394C31.5511 28.0783 32 29.7009 32 32V33Z" fill="#F89C2A"/>
</svg>
