<svg width="16" height="16" viewBox="0 0 16 16" fill="none" xmlns="http://www.w3.org/2000/svg">
<path d="M8.00007 10.8866C6.40674 10.8866 5.1134 9.59328 5.1134 7.99995C5.1134 6.40661 6.40674 5.11328 8.00007 5.11328C9.5934 5.11328 10.8867 6.40661 10.8867 7.99995C10.8867 9.59328 9.5934 10.8866 8.00007 10.8866ZM8.00007 6.11328C6.96007 6.11328 6.1134 6.95995 6.1134 7.99995C6.1134 9.03995 6.96007 9.88661 8.00007 9.88661C9.04007 9.88661 9.88674 9.03995 9.88674 7.99995C9.88674 6.95995 9.04007 6.11328 8.00007 6.11328Z" fill="#1E1E1E"/>
<path d="M7.99997 14.0132C5.4933 14.0132 3.12664 12.5466 1.49997 9.99991C0.793304 8.89991 0.793304 7.10657 1.49997 5.99991C3.1333 3.45324 5.49997 1.98657 7.99997 1.98657C10.5 1.98657 12.8666 3.45324 14.4933 5.99991C15.2 7.09991 15.2 8.89324 14.4933 9.99991C12.8666 12.5466 10.5 14.0132 7.99997 14.0132ZM7.99997 2.98657C5.84664 2.98657 3.78664 4.27991 2.34664 6.53991C1.84664 7.31991 1.84664 8.67991 2.34664 9.45991C3.78664 11.7199 5.84664 13.0132 7.99997 13.0132C10.1533 13.0132 12.2133 11.7199 13.6533 9.45991C14.1533 8.67991 14.1533 7.31991 13.6533 6.53991C12.2133 4.27991 10.1533 2.98657 7.99997 2.98657Z" fill="#1E1E1E"/>
</svg>
