<svg width="48" height="56" viewBox="0 0 48 56" fill="none" xmlns="http://www.w3.org/2000/svg">
<path fill-rule="evenodd" clip-rule="evenodd" d="M47.4 13.76L34.28 0.56L32.88 0H2L0 2V24H4V4H28V18L30 20H44V24H48V15.2L47.4 13.76ZM32 16V4L44 16H32ZM2 28L0 30V54L2 56H46L48 54V30L46 28H2ZM44 48V52H4V32H44V48ZM12 44H10.72V48H8V36H12.24C15.24 36 16.76 37.44 16.76 40C16.7677 40.5441 16.6573 41.0833 16.4363 41.5806C16.2153 42.0778 15.889 42.5212 15.48 42.88C14.4887 43.6527 13.2559 44.0495 12 44ZM11.76 38.2H10.72V41.92H11.76C13.2 41.92 13.92 41.28 13.92 40.04C13.92 38.8 13.2 38.2 11.76 38.2ZM28 46.32C28.5907 45.7382 29.0527 45.0387 29.3559 44.2669C29.659 43.4952 29.7967 42.6684 29.76 41.84C29.76 37.84 27.64 36 23.36 36H19.12V48H23.36C24.2061 48.041 25.0519 47.9136 25.8484 47.6252C26.6449 47.3368 27.3763 46.8932 28 46.32ZM21.8 45.8V38.2H23.12C23.6302 38.1676 24.1416 38.2395 24.623 38.4115C25.1045 38.5834 25.5458 38.8517 25.92 39.2C26.259 39.556 26.5224 39.977 26.6943 40.4377C26.8662 40.8983 26.9429 41.3889 26.92 41.88C26.9799 42.9344 26.6204 43.9696 25.92 44.76C25.5538 45.1104 25.1205 45.3832 24.6462 45.5619C24.1719 45.7406 23.6664 45.8216 23.16 45.8H21.8ZM39.6 43.36H35.72V48H33V36H39.96V38.2H35.72V41.16H39.6V43.36Z" fill="#989898"/>
</svg>
