<svg width="16" height="16" viewBox="0 0 16 16" fill="none" xmlns="http://www.w3.org/2000/svg">
<path d="M13.3334 4.66634V13.333C13.3334 13.6866 13.1929 14.0258 12.9429 14.2758C12.6928 14.5259 12.3537 14.6663 12 14.6663H4.00004C3.64642 14.6663 3.30728 14.5259 3.05723 14.2758C2.80718 14.0258 2.66671 13.6866 2.66671 13.333V4.66634H1.33337V3.33301H14.6667V4.66634H13.3334ZM4.00004 4.66634V13.333H12V4.66634H4.00004ZM7.33337 5.99967H8.66671V7.33301H7.33337V5.99967ZM7.33337 7.99967H8.66671V9.33301H7.33337V7.99967ZM7.33337 9.99967H8.66671V11.333H7.33337V9.99967ZM4.66671 1.33301H11.3334V2.66634H4.66671V1.33301Z" fill="#F89C2A"/>
</svg>
