<svg width="24" height="24" viewBox="0 0 24 24" fill="none" xmlns="http://www.w3.org/2000/svg">
<circle cx="12" cy="12" r="11.9" stroke="#828282" stroke-width="0.2"/>
<path d="M17.414 15.9312C17.1193 15.2331 16.6916 14.5989 16.1547 14.0641C15.6194 13.5277 14.9853 13.1 14.2875 12.8047C14.2812 12.8016 14.275 12.8 14.2687 12.7969C15.2422 12.0938 15.875 10.9484 15.875 9.65625C15.875 7.51562 14.1406 5.78125 12 5.78125C9.85935 5.78125 8.12498 7.51562 8.12498 9.65625C8.12498 10.9484 8.75779 12.0937 9.73123 12.7984C9.72498 12.8016 9.71873 12.8031 9.71248 12.8062C9.01248 13.1016 8.38435 13.525 7.84529 14.0656C7.3089 14.6009 6.88124 15.235 6.58592 15.9328C6.29579 16.616 6.13932 17.3485 6.12498 18.0906C6.12456 18.1073 6.12749 18.1239 6.13358 18.1394C6.13968 18.1549 6.14882 18.1691 6.16047 18.181C6.17212 18.193 6.18604 18.2025 6.20141 18.2089C6.21678 18.2154 6.2333 18.2188 6.24998 18.2188H7.18748C7.25623 18.2188 7.31092 18.1641 7.31248 18.0969C7.34373 16.8906 7.8281 15.7609 8.68435 14.9047C9.57029 14.0188 10.7469 13.5312 12 13.5312C13.2531 13.5312 14.4297 14.0188 15.3156 14.9047C16.1719 15.7609 16.6562 16.8906 16.6875 18.0969C16.689 18.1656 16.7437 18.2188 16.8125 18.2188H17.75C17.7667 18.2188 17.7832 18.2154 17.7985 18.2089C17.8139 18.2025 17.8278 18.193 17.8395 18.181C17.8511 18.1691 17.8603 18.1549 17.8664 18.1394C17.8725 18.1239 17.8754 18.1073 17.875 18.0906C17.8594 17.3438 17.7047 16.6172 17.414 15.9312ZM12 12.3438C11.2828 12.3438 10.6078 12.0641 10.1 11.5563C9.59217 11.0484 9.31248 10.3734 9.31248 9.65625C9.31248 8.93906 9.59217 8.26406 10.1 7.75625C10.6078 7.24844 11.2828 6.96875 12 6.96875C12.7172 6.96875 13.3922 7.24844 13.9 7.75625C14.4078 8.26406 14.6875 8.93906 14.6875 9.65625C14.6875 10.3734 14.4078 11.0484 13.9 11.5563C13.3922 12.0641 12.7172 12.3438 12 12.3438Z" fill="#4B4B4B"/>
</svg>
