<svg width="65" height="64" viewBox="0 0 65 64" fill="none" xmlns="http://www.w3.org/2000/svg">
<path d="M33.2466 28.9956C31.2471 28.9745 29.2985 28.3624 27.6462 27.2362C25.9939 26.11 24.7117 24.5201 23.9611 22.6667C23.2104 20.8134 23.0249 18.7793 23.4279 16.8207C23.8308 14.8621 24.8042 13.0665 26.2256 11.66C27.6469 10.2535 29.4526 9.29893 31.4153 8.9165C33.378 8.53407 35.41 8.74088 37.2554 9.51088C39.1008 10.2809 40.6772 11.5797 41.786 13.2437C42.8948 14.9077 43.4865 16.8626 43.4866 18.8622C43.4678 21.5624 42.3796 24.1451 40.4602 26.0445C38.5408 27.9438 35.9469 29.005 33.2466 28.9956ZM33.2466 12.2844C31.9504 12.3055 30.6893 12.709 29.6217 13.4445C28.5542 14.1799 27.7277 15.2144 27.2461 16.418C26.7646 17.6217 26.6495 18.9408 26.9152 20.2096C27.1809 21.4785 27.8157 22.6405 28.7397 23.5498C29.6637 24.4591 30.8358 25.075 32.1088 25.3203C33.3817 25.5656 34.6988 25.4293 35.8945 24.9284C37.0903 24.4276 38.1113 23.5846 38.8295 22.5053C39.5477 21.426 39.9309 20.1586 39.9311 18.8622C39.9123 17.105 39.1987 15.4267 37.9461 14.1941C36.6935 12.9615 35.0039 12.2749 33.2466 12.2844Z" fill="#989898"/>
<path d="M33.2468 28.9956C31.2473 28.9745 29.2987 28.3624 27.6464 27.2362C25.994 26.11 24.7118 24.5201 23.9612 22.6667C23.2106 20.8134 23.025 18.7793 23.428 16.8207C23.831 14.8621 24.8044 13.0665 26.2257 11.66C27.647 10.2535 29.4527 9.29893 31.4154 8.9165C33.3781 8.53407 35.4101 8.74088 37.2555 9.51088C39.101 10.2809 40.6773 11.5797 41.7861 13.2437C42.895 14.9077 43.4867 16.8626 43.4868 18.8622C43.468 21.5624 42.3797 24.1451 40.4603 26.0445C38.541 27.9438 35.947 29.005 33.2468 28.9956ZM33.2468 12.2844C31.9506 12.3055 30.6895 12.709 29.6219 13.4445C28.5543 14.1799 27.7278 15.2144 27.2463 16.418C26.7647 17.6217 26.6496 18.9408 26.9153 20.2096C27.1811 21.4785 27.8158 22.6405 28.7398 23.5498C29.6638 24.4591 30.8359 25.075 32.1089 25.3203C33.3819 25.5656 34.6989 25.4293 35.8947 24.9284C37.0904 24.4276 38.1115 23.5846 38.8296 22.5053C39.5478 21.426 39.9311 20.1586 39.9312 18.8622C39.9125 17.105 39.1988 15.4267 37.9462 14.1941C36.6937 12.9615 35.0041 12.2749 33.2468 12.2844ZM39.4512 31.3778C31.566 30.0057 23.4483 31.2545 16.3401 34.9333C15.8355 35.2135 15.4177 35.627 15.1324 36.1287C14.8471 36.6304 14.7052 37.2009 14.7223 37.7778V44.1067C14.7223 44.5782 14.9096 45.0303 15.243 45.3637C15.5764 45.6971 16.0286 45.8844 16.5001 45.8844C16.9716 45.8844 17.4238 45.6971 17.7572 45.3637C18.0906 45.0303 18.2779 44.5782 18.2779 44.1067V38.0089C24.8693 34.7016 32.365 33.6522 39.6112 35.0222L39.4512 31.3778Z" fill="#989898"/>
<path d="M59.1666 39.1111H47.2554V36.48C47.2554 36.0085 47.0681 35.5563 46.7347 35.2229C46.4014 34.8895 45.9492 34.7022 45.4777 34.7022C45.0062 34.7022 44.554 34.8895 44.2206 35.2229C43.8872 35.5563 43.6999 36.0085 43.6999 36.48V39.1111H30.7221C30.2506 39.1111 29.7984 39.2984 29.465 39.6318C29.1316 39.9652 28.9443 40.4174 28.9443 40.8889V58.6667C28.9443 59.1382 29.1316 59.5904 29.465 59.9237C29.7984 60.2571 30.2506 60.4444 30.7221 60.4444H59.1666C59.6381 60.4444 60.0902 60.2571 60.4236 59.9237C60.757 59.5904 60.9443 59.1382 60.9443 58.6667V40.8889C60.9443 40.4174 60.757 39.9652 60.4236 39.6318C60.0902 39.2984 59.6381 39.1111 59.1666 39.1111ZM57.3888 56.8889H32.4999V42.6667H43.6999V43.3956C43.6999 43.8671 43.8872 44.3192 44.2206 44.6526C44.554 44.986 45.0062 45.1733 45.4777 45.1733C45.9492 45.1733 46.4014 44.986 46.7347 44.6526C47.0681 44.3192 47.2554 43.8671 47.2554 43.3956V42.6667H57.3888V56.8889Z" fill="#989898"/>
<path d="M39.2734 48.7467H49.869V51.2356H39.2734V48.7467ZM19.7712 21.76C14.8493 21.8423 10.0128 23.0591 5.63789 25.3156C5.16209 25.5669 4.76353 25.9428 4.48485 26.4031C4.20616 26.8634 4.05781 27.3908 4.05566 27.9289V33.44C4.05566 33.9115 4.24297 34.3637 4.57636 34.6971C4.90976 35.0305 5.36195 35.2178 5.83344 35.2178C6.30494 35.2178 6.75712 35.0305 7.09052 34.6971C7.42392 34.3637 7.61122 33.9115 7.61122 33.44V28.2844C11.7913 26.2038 16.4193 25.1841 21.0868 25.3156C20.4761 24.2014 20.0328 23.0033 19.7712 21.76ZM59.3623 25.2978C55.4385 23.2395 51.1262 22.0282 46.7046 21.7422C46.4442 22.9834 46.0071 24.1807 45.4068 25.2978C49.5722 25.3975 53.6641 26.4174 57.389 28.2844V33.44C57.389 33.9115 57.5763 34.3637 57.9097 34.6971C58.2431 35.0305 58.6953 35.2178 59.1668 35.2178C59.6383 35.2178 60.0905 35.0305 60.4239 34.6971C60.7573 34.3637 60.9446 33.9115 60.9446 33.44V27.9289C60.9456 27.3878 60.7988 26.8567 60.52 26.3929C60.2411 25.9292 59.8408 25.5505 59.3623 25.2978ZM19.4512 18.8622V17.6711C18.0585 17.4847 16.7914 16.7684 15.9136 15.6713C15.0357 14.5741 14.6149 13.1807 14.7386 11.7811C14.8623 10.3814 15.521 9.08343 16.5777 8.15726C17.6343 7.23109 19.0074 6.74812 20.4112 6.80889C21.8713 6.80625 23.2748 7.37399 24.3223 8.39111C25.2466 7.62877 26.2617 6.98386 27.3446 6.47111C26.135 5.08028 24.5323 4.0886 22.7479 3.62679C20.9635 3.16498 19.081 3.25472 17.3485 3.88416C15.6161 4.51361 14.1151 5.65323 13.0433 7.15281C11.9715 8.65239 11.3792 10.4415 11.3446 12.2844C11.3819 14.54 12.2587 16.7007 13.8038 18.3444C15.3488 19.988 17.4512 20.9967 19.7001 21.1733C19.5493 20.4118 19.466 19.6384 19.4512 18.8622ZM44.5357 3.25334C43.314 3.25361 42.1046 3.49744 40.9782 3.97057C39.8518 4.44371 38.8311 5.13665 37.9757 6.00889C39.1775 6.44439 40.314 7.04255 41.3534 7.78667C42.1834 7.21054 43.1541 6.87046 44.1622 6.80269C45.1702 6.73491 46.1778 6.94198 47.0774 7.40182C47.977 7.86166 48.7349 8.55702 49.2704 9.41377C49.8059 10.2705 50.0988 11.2565 50.1179 12.2667C50.1067 13.3042 49.8019 14.3174 49.2387 15.1889C48.6755 16.0604 47.877 16.7546 46.9357 17.1911C47.0072 17.7393 47.0428 18.2916 47.0423 18.8444C47.0376 19.5591 46.9781 20.2722 46.8646 20.9778C48.8012 20.4799 50.519 19.3557 51.7505 17.7802C52.9819 16.2047 53.658 14.2663 53.6734 12.2667C53.65 9.86188 52.6758 7.5641 50.9636 5.87527C49.2515 4.18644 46.9406 3.24383 44.5357 3.25334Z" fill="#989898"/>
</svg>
