<svg width="44" height="44" viewBox="0 0 44 44" fill="none" xmlns="http://www.w3.org/2000/svg">
<rect x="0.25" y="0.25" width="43.5" height="43.5" rx="3.75" fill="#FFFAF5"/>
<rect x="0.25" y="0.25" width="43.5" height="43.5" rx="3.75" stroke="#F89C2A" stroke-width="0.5"/>
<path d="M30.1212 27.8969C29.679 26.8496 29.0374 25.8984 28.2321 25.0961C27.4292 24.2915 26.4781 23.65 25.4313 23.207C25.4219 23.2023 25.4126 23.2 25.4032 23.1953C26.8633 22.1406 27.8126 20.4227 27.8126 18.4844C27.8126 15.2734 25.211 12.6719 22.0001 12.6719C18.7891 12.6719 16.1876 15.2734 16.1876 18.4844C16.1876 20.4227 17.1368 22.1406 18.5969 23.1977C18.5876 23.2023 18.5782 23.2047 18.5688 23.2094C17.5188 23.6523 16.5766 24.2875 15.768 25.0984C14.9634 25.9013 14.3219 26.8524 13.879 27.8992C13.4438 28.924 13.2091 30.0228 13.1876 31.1359C13.1869 31.161 13.1913 31.1858 13.2005 31.2091C13.2096 31.2324 13.2233 31.2537 13.2408 31.2716C13.2583 31.2895 13.2791 31.3037 13.3022 31.3134C13.3253 31.3231 13.35 31.3281 13.3751 31.3281H14.7813C14.8844 31.3281 14.9665 31.2461 14.9688 31.1453C15.0157 29.3359 15.7422 27.6414 17.0266 26.357C18.3555 25.0281 20.1204 24.2969 22.0001 24.2969C23.8797 24.2969 25.6446 25.0281 26.9735 26.357C28.2579 27.6414 28.9844 29.3359 29.0313 31.1453C29.0337 31.2484 29.1157 31.3281 29.2188 31.3281H30.6251C30.6501 31.3281 30.6749 31.3231 30.6979 31.3134C30.721 31.3037 30.7419 31.2895 30.7593 31.2716C30.7768 31.2537 30.7905 31.2324 30.7997 31.2091C30.8088 31.1858 30.8132 31.161 30.8126 31.1359C30.7891 30.0156 30.5571 28.9258 30.1212 27.8969ZM22.0001 22.5156C20.9243 22.5156 19.9118 22.0961 19.1501 21.3344C18.3883 20.5727 17.9688 19.5602 17.9688 18.4844C17.9688 17.4086 18.3883 16.3961 19.1501 15.6344C19.9118 14.8727 20.9243 14.4531 22.0001 14.4531C23.0758 14.4531 24.0883 14.8727 24.8501 15.6344C25.6118 16.3961 26.0313 17.4086 26.0313 18.4844C26.0313 19.5602 25.6118 20.5727 24.8501 21.3344C24.0883 22.0961 23.0758 22.5156 22.0001 22.5156Z" fill="#F89C2A"/>
</svg>
