<svg width="17" height="17" viewBox="0 0 17 17" fill="none" xmlns="http://www.w3.org/2000/svg">
<path d="M10.4726 5.32693C10.5676 5.32693 10.6626 5.36193 10.7376 5.43693C10.8826 5.58193 10.8826 5.82193 10.7376 5.96693L3.73756 12.9669C3.59256 13.1119 3.35256 13.1119 3.20756 12.9669C3.06256 12.8219 3.06256 12.5819 3.20756 12.4369L10.2076 5.43693C10.2826 5.36193 10.3776 5.32693 10.4726 5.32693Z" fill="#F89C2A"/>
<path d="M5.33753 5.32691L10.4725 5.32691C10.6775 5.32691 10.8475 5.49691 10.8475 5.70191L10.8475 10.8369C10.8475 11.0419 10.6775 11.2119 10.4725 11.2119C10.2675 11.2119 10.0975 11.0419 10.0975 10.8369L10.0975 6.07691L5.33753 6.07691C5.13253 6.07691 4.96253 5.90691 4.96253 5.70191C4.96253 5.49691 5.13253 5.32691 5.33753 5.32691Z" fill="#F89C2A"/>
</svg>
