<svg width="16" height="17" viewBox="0 0 16 17" fill="none" xmlns="http://www.w3.org/2000/svg">
<path d="M4.67373 7.1805L3.34039 7.1805C1.72706 7.1805 0.840393 6.29383 0.840393 4.6805L0.840393 3.34717C0.840393 1.73383 1.72706 0.847168 3.34039 0.847168L4.67373 0.847168C6.28706 0.847168 7.17373 1.73383 7.17373 3.34717L7.17373 4.6805C7.17373 6.29383 6.28706 7.1805 4.67373 7.1805ZM3.34039 1.84717C2.28706 1.84717 1.84039 2.29383 1.84039 3.34717L1.84039 4.6805C1.84039 5.73383 2.28706 6.1805 3.34039 6.1805L4.67373 6.1805C5.72706 6.1805 6.17373 5.73383 6.17373 4.6805L6.17373 3.34717C6.17373 2.29383 5.72706 1.84717 4.67373 1.84717L3.34039 1.84717Z" fill="#686868"/>
<path d="M12.6737 7.1805L11.3404 7.1805C9.72706 7.1805 8.84039 6.29383 8.84039 4.6805L8.84039 3.34717C8.84039 1.73383 9.72706 0.847168 11.3404 0.847168L12.6737 0.847168C14.2871 0.847168 15.1737 1.73383 15.1737 3.34717L15.1737 4.6805C15.1737 6.29383 14.2871 7.1805 12.6737 7.1805ZM11.3404 1.84717C10.2871 1.84717 9.84039 2.29383 9.84039 3.34717L9.84039 4.6805C9.84039 5.73383 10.2871 6.1805 11.3404 6.1805L12.6737 6.1805C13.7271 6.1805 14.1737 5.73383 14.1737 4.6805L14.1737 3.34717C14.1737 2.29383 13.7271 1.84717 12.6737 1.84717L11.3404 1.84717Z" fill="#686868"/>
<path d="M12.6737 15.1805L11.3404 15.1805C9.72706 15.1805 8.84039 14.2938 8.84039 12.6805L8.84039 11.3472C8.84039 9.73383 9.72706 8.84717 11.3404 8.84717L12.6737 8.84717C14.2871 8.84717 15.1737 9.73383 15.1737 11.3472L15.1737 12.6805C15.1737 14.2938 14.2871 15.1805 12.6737 15.1805ZM11.3404 9.84717C10.2871 9.84717 9.84039 10.2938 9.84039 11.3472L9.84039 12.6805C9.84039 13.7338 10.2871 14.1805 11.3404 14.1805L12.6737 14.1805C13.7271 14.1805 14.1737 13.7338 14.1737 12.6805L14.1737 11.3472C14.1737 10.2938 13.7271 9.84717 12.6737 9.84717L11.3404 9.84717Z" fill="#686868"/>
<path d="M4.67373 15.1805L3.34039 15.1805C1.72706 15.1805 0.840393 14.2938 0.840393 12.6805L0.840393 11.3472C0.840393 9.73383 1.72706 8.84717 3.34039 8.84717L4.67373 8.84717C6.28706 8.84717 7.17373 9.73383 7.17373 11.3472L7.17373 12.6805C7.17373 14.2938 6.28706 15.1805 4.67373 15.1805ZM3.34039 9.84717C2.28706 9.84717 1.84039 10.2938 1.84039 11.3472L1.84039 12.6805C1.84039 13.7338 2.28706 14.1805 3.34039 14.1805L4.67373 14.1805C5.72706 14.1805 6.17373 13.7338 6.17373 12.6805L6.17373 11.3472C6.17373 10.2938 5.72706 9.84717 4.67373 9.84717L3.34039 9.84717Z" fill="#686868"/>
</svg>
