<svg width="64" height="64" viewBox="0 0 64 64" fill="none" xmlns="http://www.w3.org/2000/svg">
<path d="M61.3333 4C62.0622 4 62.6844 4.26667 63.2 4.8C63.7333 5.31556 64 5.93778 64 6.66667V57.3333C64 58.0622 63.7333 58.6844 63.2 59.2C62.6844 59.7333 62.0622 60 61.3333 60H18.6667C17.9378 60 17.3156 59.7333 16.8 59.2C16.2667 58.6844 16 58.0622 16 57.3333V48H2.66667C1.93778 48 1.31556 47.7333 0.8 47.2C0.266667 46.6844 0 46.0622 0 45.3333V18.6667C0 17.9378 0.266667 17.3156 0.8 16.8C1.29778 16.2667 1.92 16 2.66667 16H16V6.66667C16 5.93778 16.2667 5.31556 16.8 4.8C17.3156 4.26667 17.9378 4 18.6667 4H61.3333ZM16 35.4133L19.7867 42.5067H25.4933L19.1467 32.1867L25.3867 22.0533H19.8933L16.4267 28.4533L16.2933 28.6667L16.1867 28.9067L14.48 25.4933L12.72 22.0533H6.90667L12.96 32.24L6.34667 42.5067H12.1067L16 35.4133ZM38 56V48H20V56H38ZM38 44V34H32V44H38ZM38 30V20H32V30H38ZM38 16V8H20V16H38ZM60 56V48H42V56H60ZM60 44V34H42V44H60ZM60 30V20H42V30H60ZM60 16V8H42V16H60Z" fill="#989898"/>
</svg>
