<svg width="16" height="16" viewBox="0 0 16 16" fill="none" xmlns="http://www.w3.org/2000/svg">
<path d="M8.00004 7.99967H8.00671M8.00004 3.99967H8.00671M8.00004 11.9997H8.00671M8.66671 7.99967C8.66671 8.36786 8.36823 8.66634 8.00004 8.66634C7.63185 8.66634 7.33337 8.36786 7.33337 7.99967C7.33337 7.63148 7.63185 7.33301 8.00004 7.33301C8.36823 7.33301 8.66671 7.63148 8.66671 7.99967ZM8.66671 11.9997C8.66671 12.3679 8.36823 12.6663 8.00004 12.6663C7.63185 12.6663 7.33337 12.3679 7.33337 11.9997C7.33337 11.6315 7.63185 11.333 8.00004 11.333C8.36823 11.333 8.66671 11.6315 8.66671 11.9997ZM8.66671 3.99967C8.66671 4.36786 8.36823 4.66634 8.00004 4.66634C7.63185 4.66634 7.33337 4.36786 7.33337 3.99967C7.33337 3.63148 7.63185 3.33301 8.00004 3.33301C8.36823 3.33301 8.66671 3.63148 8.66671 3.99967Z" stroke="#1E1E1E" stroke-width="2" stroke-linecap="round" stroke-linejoin="round"/>
</svg>
