<svg width="17" height="17" viewBox="0 0 17 17" fill="none" xmlns="http://www.w3.org/2000/svg">
<path d="M8.99844 14.1867C7.4451 14.1867 5.89177 13.94 4.41843 13.4467C3.85843 13.2533 3.43177 12.86 3.2451 12.3467C3.05177 11.8333 3.11843 11.2667 3.4251 10.76L4.19177 9.48666C4.35177 9.21999 4.49843 8.68666 4.49843 8.37332V6.44666C4.49843 3.96666 6.51844 1.94666 8.99844 1.94666C11.4784 1.94666 13.4984 3.96666 13.4984 6.44666V8.37332C13.4984 8.67999 13.6451 9.21999 13.8051 9.49332L14.5651 10.76C14.8518 11.24 14.9051 11.82 14.7118 12.3467C14.5184 12.8733 14.0984 13.2733 13.5718 13.4467C12.1051 13.94 10.5518 14.1867 8.99844 14.1867ZM8.99844 2.94666C7.07177 2.94666 5.49844 4.51332 5.49844 6.44666V8.37332C5.49844 8.85999 5.29843 9.57999 5.05177 9.99999L4.2851 11.2733C4.13843 11.52 4.09843 11.78 4.1851 12C4.2651 12.2267 4.4651 12.4 4.73844 12.4933C7.5251 13.4267 10.4784 13.4267 13.2651 12.4933C13.5051 12.4133 13.6918 12.2333 13.7784 11.9933C13.8651 11.7533 13.8451 11.4933 13.7118 11.2733L12.9451 9.99999C12.6918 9.56666 12.4984 8.85332 12.4984 8.36666V6.44666C12.4984 4.51332 10.9318 2.94666 8.99844 2.94666Z" fill="#4B4B4B"/>
<path d="M10.2382 3.12677C10.1915 3.12677 10.1449 3.12011 10.0982 3.10677C9.90486 3.05344 9.71819 3.01344 9.53819 2.98677C8.97152 2.91344 8.42486 2.95344 7.91152 3.10677C7.72486 3.16677 7.52486 3.10677 7.39819 2.96677C7.27152 2.82677 7.23152 2.62677 7.30486 2.44677C7.57819 1.74677 8.24486 1.28677 9.00486 1.28677C9.76486 1.28677 10.4315 1.74011 10.7049 2.44677C10.7715 2.62677 10.7382 2.82677 10.6115 2.96677C10.5115 3.07344 10.3715 3.12677 10.2382 3.12677Z" fill="#4B4B4B"/>
<path d="M8.99817 15.7067C8.33817 15.7067 7.69817 15.44 7.2315 14.9734C6.76484 14.5067 6.49817 13.8667 6.49817 13.2067H7.49817C7.49817 13.6 7.65817 13.9867 7.93817 14.2667C8.21817 14.5467 8.60484 14.7067 8.99817 14.7067C9.82484 14.7067 10.4982 14.0334 10.4982 13.2067H11.4982C11.4982 14.5867 10.3782 15.7067 8.99817 15.7067Z" fill="#4B4B4B"/>
</svg>
